<svg width="106" height="33" viewBox="0 0 106 33" fill="none" xmlns="http://www.w3.org/2000/svg">
<path d="M13.2278 13.6818C13.4313 13.2657 16.9622 7.56038 17.2882 7.04374C17.4443 6.798 17.5781 6.78683 17.5056 7.08563C17.4554 7.29787 16.4187 10.9283 15.5493 14.4218C15.0699 14.2319 13.7434 13.8046 13.2278 13.6818ZM4.1289 20.3561C3.64679 19.9372 3.70531 18.5995 5.0374 17.2591C6.42524 15.8656 7.55111 15.2316 9.58269 15.1479C8.71321 16.4408 8.03044 17.3847 7.19718 18.5129C5.90689 20.2667 4.79216 20.9313 4.1289 20.3561ZM28.1791 13.6008C27.9756 13.6008 22.664 13.6119 22.2878 13.6008C21.9115 13.5896 21.8865 13.9861 22.1624 14.1537C22.742 14.5112 22.8591 15.0027 22.625 15.9521C22.2766 17.3652 21.9311 18.4627 21.0337 20.0321C20.0165 21.8054 18.5729 22.6991 17.8595 22.417C17.2882 22.1908 17.3523 21.3335 17.8595 19.3256C17.9125 19.1162 18.063 18.5213 18.2664 17.7087C18.9882 18.2812 19.6319 18.929 20.1698 19.63C20.1754 19.6076 20.5655 18.1024 20.5934 18.0438C20.1085 17.4685 19.448 16.8206 18.6482 16.2063C19.3895 13.2684 20.3983 9.26945 20.5544 8.58805C20.8358 7.37327 21.1842 6.16408 22.1958 5.59718C22.5999 5.37377 22.5553 4.94092 22.1206 4.94092C21.7443 4.94092 18.3751 4.95488 17.9961 4.95488C16.8535 4.95488 15.9979 6.41541 15.2734 7.43192C14.5181 8.48752 11.6199 12.5535 11.0987 13.2796C8.41502 13.0534 5.56411 13.5673 3.04762 15.9214C0.0518 18.728 0.227369 21.9674 0.865549 23.0844C2.00814 25.0756 4.51627 24.6427 6.27196 23.1989C8.26453 21.5625 9.83908 19.5825 12.4113 15.1367C13.0467 15.2428 14.5571 15.7036 15.173 15.9382C14.6324 18.1164 14.1726 19.9679 14.0527 20.4706C13.9496 20.9118 13.8604 21.3307 13.7796 21.7468C13.4926 23.2241 14.5153 24.9359 16.5637 24.9359C18.7792 24.9359 20.6519 23.1961 21.9589 21.0347C22.9845 19.3424 23.5753 17.7478 24.1995 15.2121C24.3026 15.2093 24.6036 15.2121 24.6036 15.2121C24.6036 15.2121 22.9454 21.811 22.781 22.4561C22.5023 23.5648 22.9176 24.7153 24.2692 24.7879C25.1888 24.8382 26.0695 24.5059 26.6993 23.9864C26.7244 23.8943 27.0588 22.4868 27.1006 22.336C26.6658 22.8052 25.9803 23.1459 25.7211 22.9141C25.4898 22.7046 25.5678 22.3975 25.7406 21.6881C25.8521 21.2274 26.9612 16.7341 27.1647 15.9493C27.4155 14.9747 27.5883 14.5251 28.1986 14.1118C28.4383 13.9498 28.4578 13.6008 28.1791 13.6008Z" fill="white"/>
<path d="M31.8743 13.4304C30.754 13.4164 29.433 14.1006 29.0178 14.4804C28.9955 14.5586 28.6862 15.7706 28.6109 16.0107C28.9871 15.6449 29.5863 15.388 29.8678 15.5919C30.0991 15.7594 30.0991 16.1252 29.9235 16.7983C29.8204 17.1948 28.6834 21.7858 28.5385 22.4393C28.2486 23.7407 28.7475 24.746 30.0991 24.8214C31.0215 24.8689 31.7962 24.5589 32.4261 24.0395C32.4567 23.9278 32.8023 22.5175 32.8385 22.3835C32.4066 22.8554 31.7126 23.1849 31.4535 22.9531C31.2222 22.7437 31.2835 22.403 31.4646 21.6937C31.5733 21.2636 32.9054 16.0331 33.0531 15.3824C33.2705 14.4218 33.0754 13.4471 31.8743 13.4304Z" fill="white"/>
<path d="M47.129 22.6068C46.541 22.3974 46.3292 21.4898 46.8698 19.3563C47.6947 16.1057 48.907 15.0724 49.7653 15.0864C50.3506 15.0975 50.6766 15.6198 50.5206 16.5022C50.2976 17.3875 50.0273 18.4487 49.7821 19.4205C49.7737 19.4428 49.7653 19.468 49.757 19.5043C49.4086 20.8447 48.3719 23.0481 47.129 22.6068ZM50.4927 24.8158C51.4151 24.8661 52.2958 24.5309 52.9228 24.0115C52.9479 23.9194 53.2823 22.5091 53.3269 22.3555C52.8921 22.8275 52.2038 23.171 51.9474 22.9364C51.7133 22.7269 51.7914 22.417 51.9641 21.7076C52.0784 21.2441 53.1625 16.7927 53.3659 16.0051C53.6167 15.0305 53.7588 14.5195 54.3998 14.1648C54.6729 14.014 54.6896 13.6203 54.3775 13.6203H51.9948C51.4458 13.6203 51.1978 13.7711 51.0166 14.5055C50.5986 13.8353 49.9298 13.556 49.1773 13.556C46.8838 13.556 45.0194 15.6449 44.1193 19.0295C43.3557 21.8947 43.6093 23.9976 45.2033 24.6622C46.4658 25.1872 48.0319 24.45 48.9683 23.1207C49.0073 23.992 49.4727 24.7599 50.4927 24.8158Z" fill="white"/>
<path d="M31.8967 9.68548C31.0077 10.0317 30.4643 10.8469 30.6817 11.5114C30.9018 12.173 31.7992 12.4299 32.6882 12.0837C33.5772 11.7375 34.1206 10.9223 33.9004 10.2578C33.6831 9.59614 32.7857 9.33929 31.8967 9.68548Z" fill="white"/>
<path d="M87.4493 13.6203H85.0665C84.5175 13.6203 84.2695 13.7711 84.0911 14.5055C83.6703 13.8353 83.0043 13.556 82.2491 13.556C79.9555 13.556 78.0856 15.6421 77.191 19.0295C76.4999 21.6518 76.6587 23.7434 77.9964 24.5198C78.3531 24.6817 78.5621 24.3997 78.5064 24.4583C78.0688 24.9024 77.4056 25.4693 76.6894 26.1004C75.2848 27.3375 73.5096 29.0103 71.8849 28.8176C70.9263 28.7031 70.1348 27.9435 70.6336 26.5221C69.2988 26.5947 68.7107 28.0803 68.733 29.1555C68.772 30.8729 69.923 31.9816 71.8626 31.9956C74.6411 32.0123 77.9713 27.6782 78.8324 26.7036C79.3564 26.1171 80.1116 25.2961 80.6522 24.6343C80.8111 24.4137 80.878 24.3438 81.0647 24.126C81.0898 24.0339 81.3935 22.7521 81.4493 22.5398C81.0786 22.9168 80.524 23.0146 80.1729 22.8861C79.5877 22.6683 79.4009 21.4898 79.9416 19.3563C80.7665 16.1057 81.9787 15.0668 82.8371 15.0864C83.4502 15.1031 83.7985 15.6952 83.5366 16.7089C83.531 16.7368 83.5254 16.7591 83.5226 16.7815C82.982 18.9346 82.2268 21.9115 82.1125 22.3332C81.7865 23.5619 82.2128 24.7432 83.5644 24.8158C84.4869 24.8661 85.3675 24.5309 85.9945 24.0115C86.0224 23.8775 86.354 22.5091 86.3986 22.3555C85.9639 22.8275 85.2755 23.1709 85.0192 22.9364C84.7878 22.7269 84.8631 22.4169 85.0359 21.7076C85.1501 21.2441 86.237 16.7927 86.4376 16.0051C86.6885 15.0305 86.8306 14.5195 87.4715 14.1648C87.7474 14.014 87.7614 13.6203 87.4493 13.6203Z" fill="white"/>
<path d="M66.3805 24.7878C68.5375 25.1983 70.4492 23.7127 71.1292 21.2329C71.6057 19.4875 71.1153 17.9767 70.2012 17.3483C70.7307 16.8848 71.4329 16.3346 72.1269 16.1364C72.9434 15.9074 73.2862 16.3402 73.0465 17.3009C72.701 18.6916 71.8816 21.9673 71.7869 22.3331C71.4887 23.4976 71.8872 24.7431 73.2388 24.8158C74.1612 24.866 75.0419 24.5309 75.6689 24.0115C75.694 23.9193 76.0284 22.5063 76.073 22.3555C75.6382 22.8274 74.9499 23.1709 74.6907 22.9363C74.4594 22.7269 74.5374 22.4169 74.7102 21.7076C74.7994 21.3418 76.0395 16.5078 76.2625 15.5862C76.5384 14.4385 76.2681 13.5728 75.1896 13.5728C73.5676 13.5728 71.419 14.6647 69.2314 17.2059C69.8696 18.0074 70.1176 19.3506 69.6382 21.1379C69.106 23.1095 68.2476 23.8356 67.7404 23.7043C67.4729 23.6345 67.2137 23.3943 67.4506 22.4141C67.6401 21.6266 69.2871 15.1003 69.4627 14.4049C69.5881 13.9135 69.4153 13.6091 69.0307 13.6091C68.7381 13.6091 66.5087 13.6007 66.3498 13.6035C66.0182 13.6091 66.021 13.9665 66.2049 14.0754C66.5672 14.2905 66.6341 14.6479 66.4613 15.455C66.3275 16.0805 65.1041 20.8112 64.9453 21.4367C64.5272 23.1067 64.9731 24.5225 66.3805 24.7878Z" fill="white"/>
<path d="M43.2645 5.89593C44.003 6.0216 44.0476 7.24196 43.337 8.65781C42.5817 10.163 41.0406 11.5621 38.9812 11.9363C40.1879 8.75834 41.7429 5.63622 43.2645 5.89593ZM38.6272 12.9277C40.8177 12.5479 43.8525 10.931 44.814 7.81445C45.3741 5.99926 44.8586 4.5108 43.1335 4.38513C39.9788 4.15614 36.6737 8.47908 34.957 15.4969C34.33 18.0717 34.0513 19.6914 34.0401 21.3446C34.029 23.4195 34.8595 24.4304 36.1832 24.7879C38.4517 25.4022 41.4698 23.83 42.6235 19.5434C43.8609 14.9495 42.1972 13.1595 40.2882 13.4304C40.1126 13.556 38.8084 14.5111 38.8084 14.5111L38.5213 15.7482C38.9533 15.4662 39.4772 15.3712 39.8423 15.5388C40.6059 15.8878 40.6142 17.3959 40.0346 19.6718C39.4075 22.1321 38.1228 23.6233 37.2951 23.3413C36.5371 23.0816 36.4563 21.8109 37.2422 18.1973C37.5766 16.6474 38.2176 14.1983 38.6272 12.9277Z" fill="white"/>
<path d="M61.8862 13.5253C60.9471 13.5309 59.8296 14.0057 59.0242 15.24C59.1301 14.8044 59.2025 14.5139 59.2276 14.4218C59.353 13.9303 59.1775 13.6259 58.7929 13.6259C58.503 13.6259 56.2736 13.6175 56.1148 13.6203C55.7803 13.6259 55.7859 13.9833 55.9698 14.0922C56.3321 14.3073 56.399 14.6619 56.2262 15.4718C56.0897 16.0945 53.3725 26.8041 53.2248 27.4325C52.8904 28.8316 52.4668 30.6579 51.0121 31.2388C50.6805 31.37 50.7724 31.5599 50.9424 31.5655C53.4171 31.6158 55.8416 31.6158 56.5579 31.5907C56.7474 31.5823 56.778 31.4063 56.6052 31.317C55.4766 30.7389 55.5657 29.284 55.9113 27.8709C56.0228 27.4157 57.0623 23.1905 57.9513 19.5909C57.9596 19.5685 57.9763 19.5183 57.9958 19.4317C58.5978 16.9854 59.8825 15.4439 60.7548 15.6729C61.7748 15.9409 61.393 17.9795 60.9722 19.4959C60.5848 20.8978 59.8602 22.5873 59.144 22.4198C58.8347 22.3444 58.6619 21.864 58.9657 21.2022C58.857 21.2441 57.9011 21.5485 57.8426 21.5596C57.1375 23.6988 58.1213 24.7795 59.3279 24.7739C61.1728 24.7628 62.9201 22.713 63.8621 19.4401C64.7371 16.3961 64.2662 13.5086 61.8862 13.5253Z" fill="white"/>
<path d="M4.90907 30.3141C5.43299 30.3141 5.59462 30.1773 5.59462 29.7027C5.59462 29.2281 5.43299 29.0913 4.90907 29.0913C4.59973 29.0913 4.40466 29.1024 4.40466 29.1024V30.3141H4.90907ZM4.20122 31.5313C4.14827 31.5313 4.12598 31.5034 4.12598 31.4476V28.8763C4.35449 28.8763 4.5858 28.8651 4.86448 28.8651C5.61971 28.8651 5.88445 29.0661 5.88445 29.6775C5.88445 30.3253 5.63085 30.543 4.86448 30.543H4.40466V31.5313H4.20122Z" fill="white"/>
<path d="M7.41777 30.0826C7.41777 30.0435 7.41777 30.0351 7.37597 30.0016C7.3286 29.9625 7.18089 29.8564 6.96074 29.8564C6.64583 29.8564 6.38665 30.0463 6.38665 30.5963C6.38665 31.0765 6.57616 31.3333 6.9468 31.3333C7.19204 31.3333 7.3286 31.23 7.37597 31.191C7.40941 31.1602 7.41777 31.1547 7.41777 31.1128V30.0826ZM7.58498 31.5316C7.50695 31.5316 7.48466 31.5204 7.46515 31.4869C7.43449 31.4478 7.42892 31.4171 7.39548 31.4171C7.36482 31.4171 7.35089 31.4283 7.31466 31.4506C7.20319 31.5204 7.02762 31.5734 6.85762 31.5734C6.4396 31.5734 6.09961 31.2803 6.09961 30.6019C6.09961 29.9234 6.47026 29.6163 6.85762 29.6163C7.02762 29.6163 7.20319 29.6722 7.31466 29.7392C7.35089 29.7615 7.36482 29.7727 7.39548 29.7727C7.42892 29.7727 7.43449 29.7448 7.46515 29.7029C7.48466 29.6722 7.50695 29.661 7.58498 29.661H7.68531V31.5316H7.58498Z" fill="white"/>
<path d="M8.26665 31.5316C8.2137 31.5316 8.19141 31.5036 8.19141 31.4478V29.661H8.29173C8.36976 29.661 8.38927 29.6722 8.41156 29.7057C8.44222 29.7448 8.44779 29.7727 8.48123 29.7727C8.5091 29.7727 8.52582 29.7615 8.56205 29.742C8.67352 29.6722 8.84631 29.6163 9.0163 29.6163C9.04696 29.6163 9.08597 29.6219 9.08597 29.6219V29.8788C9.08597 29.8788 8.99958 29.8676 8.92712 29.8676C8.70697 29.8676 8.54533 29.9737 8.50074 30.0128C8.45894 30.0463 8.45894 30.0491 8.45894 30.091V31.5316H8.26665Z" fill="white"/>
<path d="M10.3488 31.5453C10.2652 31.5649 10.1398 31.5761 10.0284 31.5761C9.66607 31.5761 9.52115 31.403 9.52115 30.9926V29.873H9.24805V29.6608H9.52115V29.2532L9.79147 29.175V29.6608H10.2903V29.873H9.79147V31.0121C9.79147 31.255 9.84721 31.3667 10.1008 31.3667C10.2067 31.3667 10.3349 31.3527 10.3349 31.3527L10.3488 31.5453Z" fill="white"/>
<path d="M12.4619 29.8341C12.0773 29.8341 11.8878 30.0937 11.8878 30.5935C11.8878 31.096 12.0773 31.3529 12.4619 31.3529C12.8464 31.3529 13.0331 31.096 13.0331 30.5935C13.0331 30.0937 12.8464 29.8341 12.4619 29.8341ZM12.4619 31.5734C11.9045 31.5734 11.6035 31.2328 11.6035 30.5935C11.6035 29.9597 11.9045 29.6135 12.4619 29.6135C13.0192 29.6135 13.3202 29.9541 13.3202 30.5935C13.3202 31.2328 13.0192 31.5734 12.4619 31.5734Z" fill="white"/>
<path d="M13.9109 31.5313C13.8579 31.5313 13.8356 31.5034 13.8356 31.4475V29.8729H13.5625V29.6607H13.8356V29.4346C13.8356 29.0242 13.9805 28.8539 14.3428 28.8539C14.4543 28.8539 14.5769 28.865 14.6605 28.8846L14.6466 29.0772C14.6466 29.0772 14.5212 29.0633 14.4153 29.0633C14.1617 29.0633 14.1031 29.1749 14.1031 29.4178V29.6607H14.5964V29.8729H14.1031V31.5313H13.9109Z" fill="white"/>
<path d="M16.889 31.5453C16.8054 31.5649 16.6828 31.5761 16.5713 31.5761C16.209 31.5761 16.0641 31.403 16.0641 30.9926V29.873H15.791V29.6608H16.0641V29.2532L16.3317 29.175V29.6608H16.8305V29.873H16.3317V31.0121C16.3317 31.255 16.3902 31.3667 16.6438 31.3667C16.7469 31.3667 16.8751 31.3527 16.8751 31.3527L16.889 31.5453Z" fill="white"/>
<path d="M18.5284 31.5314C18.4727 31.5314 18.4532 31.5035 18.4532 31.4476V30.3141C18.4532 29.9847 18.3445 29.8562 17.9878 29.8562C17.7314 29.8562 17.5725 29.9623 17.5252 30.0014C17.4834 30.0349 17.4834 30.0377 17.4834 30.0796V31.5314H17.2911C17.2381 31.5314 17.2158 31.5035 17.2158 31.4476V28.8903H17.4081C17.4638 28.8903 17.4834 28.9182 17.4834 28.974V29.6859C17.4834 29.7418 17.4945 29.7613 17.5196 29.7613C17.5363 29.7613 17.553 29.7557 17.5781 29.7418C17.6979 29.6776 17.854 29.6161 18.0435 29.6161C18.4922 29.6161 18.7207 29.8172 18.7207 30.2415V31.5314H18.5284Z" fill="white"/>
<path d="M19.8353 30.6019C20.0973 30.6019 20.2422 30.5516 20.3147 30.4539C20.3537 30.3953 20.3732 30.3227 20.3732 30.2389C20.3732 30.0128 20.2394 29.8285 19.9162 29.8285C19.5037 29.8285 19.4062 30.2389 19.4062 30.5432C19.4926 30.5767 19.6347 30.6019 19.8353 30.6019ZM20.5711 31.4841C20.5711 31.4841 20.2729 31.5762 20.0249 31.5762C19.409 31.5762 19.1191 31.2245 19.1191 30.5935C19.1191 29.9765 19.4006 29.6163 19.919 29.6163C20.3732 29.6163 20.663 29.8732 20.663 30.2305C20.663 30.4092 20.6045 30.5404 20.5042 30.6298C20.3621 30.7582 20.1335 30.8057 19.8604 30.8057C19.6013 30.8057 19.4118 30.7554 19.4118 30.7554C19.4536 31.2217 19.6988 31.3501 20.1057 31.3501C20.2534 31.3501 20.5348 31.2915 20.5348 31.2915L20.5711 31.4841Z" fill="white"/>
<path d="M23.8265 31.4699C23.6454 31.5174 23.3527 31.5732 23.1019 31.5732C22.3774 31.5732 22.0234 31.2047 22.0234 30.2024C22.0234 29.2364 22.4721 28.8372 23.0852 28.8372C23.4726 28.8372 23.8265 28.9712 23.8265 28.9712L23.7429 29.2141C23.7318 29.2392 23.7178 29.2531 23.6955 29.2531C23.6816 29.2531 23.6593 29.2476 23.6342 29.228C23.5144 29.1471 23.3277 29.0856 23.0936 29.0856C22.6505 29.0856 22.3161 29.3481 22.3161 30.2024C22.3161 31.0679 22.5446 31.3191 23.1632 31.3191C23.3667 31.3191 23.6231 31.2801 23.7875 31.2549L23.8265 31.4699Z" fill="white"/>
<path d="M25.3779 30.0826C25.3779 30.0435 25.3779 30.0351 25.3389 30.0016C25.2915 29.9625 25.141 29.8564 24.9208 29.8564C24.6059 29.8564 24.3468 30.0463 24.3468 30.5963C24.3468 31.0765 24.5363 31.3333 24.9069 31.3333C25.1521 31.3333 25.2915 31.23 25.3389 31.191C25.3695 31.1602 25.3779 31.1547 25.3779 31.1128V30.0826ZM25.5451 31.5316C25.4671 31.5316 25.4448 31.5204 25.4252 31.4869C25.3946 31.4478 25.389 31.4171 25.3556 31.4171C25.3277 31.4171 25.311 31.4283 25.2748 31.4506C25.1633 31.5204 24.9877 31.5734 24.8205 31.5734C24.3997 31.5734 24.0625 31.2803 24.0625 30.6019C24.0625 29.9234 24.4304 29.6163 24.8205 29.6163C24.9877 29.6163 25.1633 29.6722 25.2748 29.7392C25.311 29.7615 25.3277 29.7727 25.3556 29.7727C25.389 29.7727 25.3946 29.7448 25.4252 29.7029C25.4448 29.6722 25.4671 29.661 25.5451 29.661H25.6454V31.5316H25.5451Z" fill="white"/>
<path d="M26.2304 31.5316C26.1746 31.5316 26.1523 31.5036 26.1523 31.4478V29.661H26.2555C26.3307 29.661 26.353 29.6722 26.3753 29.7057C26.4032 29.7448 26.4115 29.7727 26.4422 29.7727C26.4728 29.7727 26.4868 29.7615 26.523 29.742C26.6345 29.6722 26.81 29.6163 26.9772 29.6163C27.0079 29.6163 27.0469 29.6219 27.0469 29.6219V29.8788C27.0469 29.8788 26.9605 29.8676 26.8881 29.8676C26.6679 29.8676 26.5063 29.9737 26.4617 30.0128C26.4199 30.0463 26.4199 30.0491 26.4199 30.091V31.5316H26.2304Z" fill="white"/>
<path d="M28.0448 31.5314C27.9389 31.5481 27.8748 31.5565 27.7773 31.5565C27.4819 31.5565 27.3955 31.3667 27.3955 31.0093V28.8903H27.5878C27.6435 28.8903 27.663 28.9182 27.663 28.974V31.0288C27.663 31.2522 27.7048 31.3443 27.8804 31.3443C27.9055 31.3443 27.9334 31.3443 28.0253 31.3332L28.0448 31.5314Z" fill="white"/>
<path d="M28.2717 31.2887C28.2717 31.2887 28.5058 31.3501 28.7733 31.3501C29.0576 31.3501 29.2136 31.2635 29.2136 31.029C29.2136 30.8587 29.1468 30.7498 28.8095 30.6996C28.4333 30.6409 28.2188 30.5404 28.2188 30.1942C28.2188 29.929 28.3469 29.6135 28.9433 29.6135C29.1774 29.6135 29.3251 29.661 29.4226 29.6945L29.3558 29.8648C29.3335 29.9178 29.3223 29.9402 29.2945 29.9402C29.2722 29.9402 29.261 29.9123 29.1607 29.8732C29.1077 29.848 29.0381 29.8369 28.9517 29.8369C28.6228 29.8369 28.5058 29.9653 28.5058 30.1635C28.5058 30.4008 28.6646 30.4343 28.9489 30.4902C29.3335 30.5628 29.4979 30.7135 29.4979 31.0067C29.4979 31.3752 29.2749 31.5734 28.7705 31.5734C28.5309 31.5734 28.2355 31.4869 28.2355 31.4869L28.2717 31.2887Z" fill="white"/>
<path d="M30.166 31.1098C30.166 31.1489 30.166 31.1573 30.205 31.1908C30.2524 31.2299 30.4001 31.3332 30.623 31.3332C30.9379 31.3332 31.1943 31.1461 31.1943 30.5933C31.1943 30.1159 31.0048 29.8562 30.6369 29.8562C30.3889 29.8562 30.2524 29.9623 30.205 30.0014C30.1743 30.0321 30.166 30.0377 30.166 30.0796V31.1098ZM29.8984 31.5314V28.8903H30.0879C30.1437 28.8903 30.166 28.9154 30.166 28.974V29.6859C30.166 29.7418 30.1771 29.7613 30.2022 29.7613C30.2161 29.7613 30.2329 29.7557 30.2579 29.7418C30.3778 29.6804 30.5338 29.6161 30.7233 29.6161C31.1441 29.6161 31.4814 29.9121 31.4814 30.5905C31.4814 31.2689 31.1107 31.5733 30.7233 31.5733C30.5533 31.5733 30.3778 31.5202 30.2663 31.4504C30.2301 31.4281 30.2161 31.4169 30.1883 31.4169C30.1548 31.4169 30.1465 31.4476 30.1186 31.4867C30.0963 31.5202 30.074 31.5314 29.9988 31.5314H29.8984Z" fill="white"/>
<path d="M32.5238 30.6019C32.7858 30.6019 32.9307 30.5516 33.0032 30.4539C33.0422 30.3953 33.0617 30.3227 33.0617 30.2389C33.0617 30.0128 32.9279 29.8285 32.6046 29.8285C32.1894 29.8285 32.0947 30.2389 32.0947 30.5432C32.1811 30.5767 32.3232 30.6019 32.5238 30.6019ZM33.2623 31.4841C33.2623 31.4841 32.9614 31.5762 32.7133 31.5762C32.0974 31.5762 31.8076 31.2245 31.8076 30.5935C31.8076 29.9765 32.0919 29.6163 32.6074 29.6163C33.0617 29.6163 33.3515 29.8732 33.3515 30.2305C33.3515 30.4092 33.293 30.5404 33.1927 30.6298C33.0505 30.7582 32.822 30.8057 32.5489 30.8057C32.2897 30.8057 32.1002 30.7554 32.1002 30.7554C32.142 31.2217 32.3873 31.3501 32.7942 31.3501C32.9419 31.3501 33.2261 31.2915 33.2261 31.2915L33.2623 31.4841Z" fill="white"/>
<path d="M33.8252 31.5316C33.7723 31.5316 33.75 31.5036 33.75 31.4478V29.661H33.8503C33.9284 29.661 33.9506 29.6722 33.9702 29.7057C34.0008 29.7448 34.0064 29.7727 34.0398 29.7727C34.0677 29.7727 34.0844 29.7615 34.1206 29.742C34.2321 29.6722 34.4077 29.6163 34.5749 29.6163C34.6055 29.6163 34.6446 29.6219 34.6446 29.6219V29.8788C34.6446 29.8788 34.5582 29.8676 34.4857 29.8676C34.2656 29.8676 34.1067 29.9737 34.0593 30.0128C34.0175 30.0463 34.0175 30.0491 34.0175 30.091V31.5316H33.8252Z" fill="white"/>
<path d="M36.0683 30.0826C36.0683 30.0435 36.0683 30.0351 36.0293 30.0016C35.9819 29.9625 35.8342 29.8564 35.6113 29.8564C35.2964 29.8564 35.04 30.0463 35.04 30.5963C35.04 31.0765 35.2295 31.3333 35.5973 31.3333C35.8454 31.3333 35.9819 31.23 36.0293 31.191C36.0627 31.1602 36.0683 31.1547 36.0683 31.1128V30.0826ZM36.0683 31.5036C36.0683 31.4506 36.0599 31.4283 36.0349 31.4283C36.0181 31.4283 35.9986 31.4366 35.9736 31.4506C35.8565 31.512 35.7004 31.5734 35.5109 31.5734C35.0901 31.5734 34.7529 31.2803 34.7529 30.6019C34.7529 29.9234 35.1236 29.6163 35.5109 29.6163C35.6809 29.6163 35.8565 29.6722 35.968 29.7392C36.0042 29.7615 36.0181 29.7727 36.0488 29.7727C36.0795 29.7727 36.0878 29.7448 36.1157 29.7029C36.138 29.6722 36.1603 29.661 36.2355 29.661H36.3358V31.6125C36.3358 32.1653 36.0516 32.344 35.6586 32.344C35.2434 32.344 35.0177 32.0146 35.0177 32.0146L35.1737 31.8694C35.1737 31.8694 35.366 32.1207 35.6419 32.1207C35.8872 32.1207 36.0683 32.0062 36.0683 31.6767V31.5036Z" fill="white"/>
<path d="M39.6579 31.5313C39.5882 31.5313 39.5632 31.5174 39.5353 31.4839C39.513 31.4587 39.4935 31.4169 39.4461 31.4169C39.4155 31.4169 39.3959 31.4336 39.3597 31.4504C39.2232 31.5202 38.9891 31.5732 38.8051 31.5732C38.1503 31.5732 37.8047 31.2047 37.8047 30.1968C37.8047 29.228 38.2534 28.8372 38.9584 28.8372C39.3514 28.8372 39.683 28.9712 39.683 28.9712L39.5994 29.2169C39.5882 29.2448 39.5771 29.2587 39.5548 29.2587C39.5381 29.2587 39.513 29.2476 39.4795 29.2252C39.3514 29.1331 39.1869 29.0856 38.9724 29.0856C38.4345 29.0856 38.114 29.3425 38.114 30.1968C38.114 31.0288 38.3175 31.3136 38.9807 31.3136C39.251 31.3136 39.4405 31.2047 39.4405 31.2047C39.5158 31.1544 39.5186 31.1321 39.5186 31.0288V30.2275H39.7136C39.7694 30.2275 39.7917 30.2526 39.7917 30.3113V31.5313H39.6579Z" fill="white"/>
<path d="M40.3905 31.5316C40.3348 31.5316 40.3125 31.5036 40.3125 31.4478V29.661H40.4156C40.4909 29.661 40.5131 29.6722 40.5354 29.7057C40.5633 29.7448 40.5717 29.7727 40.6023 29.7727C40.633 29.7727 40.6469 29.7615 40.6831 29.742C40.7946 29.6722 40.9702 29.6163 41.1402 29.6163C41.168 29.6163 41.2098 29.6219 41.2098 29.6219V29.8788C41.2098 29.8788 41.1207 29.8676 41.0482 29.8676C40.8281 29.8676 40.6692 29.9737 40.6218 30.0128C40.58 30.0463 40.58 30.0491 40.58 30.091V31.5316H40.3905Z" fill="white"/>
<path d="M42.1806 29.8341C41.796 29.8341 41.6093 30.0937 41.6093 30.5935C41.6093 31.096 41.796 31.3529 42.1806 31.3529C42.5652 31.3529 42.7519 31.096 42.7519 30.5935C42.7519 30.0937 42.5652 29.8341 42.1806 29.8341ZM42.1806 31.5734C41.6232 31.5734 41.3223 31.2328 41.3223 30.5935C41.3223 29.9597 41.6232 29.6135 42.1806 29.6135C42.738 29.6135 43.0389 29.9541 43.0389 30.5935C43.0389 31.2328 42.738 31.5734 42.1806 31.5734Z" fill="white"/>
<path d="M44.8218 31.5316C44.7466 31.5316 44.7243 31.5204 44.702 31.4869C44.6741 31.4478 44.6658 31.4171 44.6323 31.4171C44.6045 31.4171 44.5905 31.4283 44.5543 31.4506C44.4401 31.5204 44.2728 31.5735 44.1084 31.5735C43.6653 31.5735 43.4424 31.3752 43.4424 30.9509V29.661H43.6319C43.6876 29.661 43.7099 29.6861 43.7099 29.7448V30.8783C43.7099 31.2077 43.813 31.3334 44.1614 31.3334C44.4122 31.3334 44.5682 31.2301 44.6156 31.191C44.6546 31.1575 44.6546 31.1491 44.6546 31.11V29.661H44.8469C44.9027 29.661 44.925 29.6861 44.925 29.7448V31.5316H44.8218Z" fill="white"/>
<path d="M45.6629 31.11C45.6629 31.1491 45.6629 31.1575 45.7019 31.191C45.7493 31.23 45.897 31.3333 46.1199 31.3333C46.4321 31.3333 46.6912 31.1463 46.6912 30.5935C46.6912 30.1161 46.5045 29.8564 46.1339 29.8564C45.8886 29.8564 45.7493 29.9625 45.7019 30.0016C45.6685 30.0323 45.6629 30.0379 45.6629 30.0798V31.11ZM45.4706 32.1765C45.4149 32.1765 45.3926 32.1514 45.3926 32.0927V29.661H45.4957C45.5709 29.661 45.5932 29.6722 45.6155 29.7057C45.6434 29.7448 45.6518 29.7727 45.6852 29.7727C45.7131 29.7727 45.727 29.7615 45.7632 29.742C45.8775 29.6722 46.0503 29.6163 46.2203 29.6163C46.6411 29.6163 46.9783 29.9123 46.9783 30.5907C46.9783 31.2691 46.6076 31.5734 46.2203 31.5734C46.0308 31.5734 45.8775 31.512 45.7576 31.4506C45.7326 31.4366 45.7131 31.4283 45.6991 31.4283C45.674 31.4283 45.6629 31.4506 45.6629 31.5064V32.1765H45.4706Z" fill="white"/>
<path d="M105.644 0.302368C101.572 4.90178 96.9574 8.21101 91.6151 9.38669C91.813 10.3473 91.7879 11.523 91.1163 11.6543C90.3833 11.7995 91.1023 13.0953 92.5487 13.8884C90.0991 12.9724 90.5422 11.213 87.5798 10.5791C87.3624 10.5317 86.9946 10.6601 86.989 10.9366C86.6462 10.0932 86.7772 9.78324 87.6941 9.76928C87.7805 9.51794 88.296 9.47047 88.8144 9.49281V9.49002C89.0401 9.50677 89.1655 9.4593 89.2658 9.39507C89.3857 9.31688 89.3299 9.1186 89.3299 9.1186C89.2519 9.22751 89.0178 9.2331 88.7809 9.20517C86.5849 8.76953 82.898 6.17241 80.0889 3.1955C80.4707 4.32092 81.0113 5.3458 81.8641 6.1752C81.8891 6.19754 81.8696 6.23385 81.839 6.22547C81.3123 6.08863 81.2565 6.08863 80.7047 5.70605C81.2621 6.71138 81.7972 7.24198 82.6667 7.66366C82.7335 7.69438 82.7168 7.80049 82.6388 7.80329C82.2932 7.81167 81.8306 7.69438 81.4962 7.59384C83.6616 12.5004 87.7136 10.8305 90.2022 12.7015C90.3722 12.83 90.375 12.8886 90.3053 13.0701C90.074 13.6677 89.9486 14.2821 89.6838 15.1953C91.6513 14.6507 93.5129 14.4748 96.074 15.1255C97.1859 15.4075 94.2208 13.4667 93.6578 13.1288C93.4795 13.0227 93.0475 12.7406 93.2844 12.6177C96.3583 11.0427 101.129 12.6931 104.457 6.68904C103.222 7.2336 102.431 6.95434 101.631 7.17216C103.788 6.58571 105.081 5.40445 105.619 3.9132C104.688 4.61414 103.423 4.64765 102.612 5.16987C104.551 3.91878 105.226 2.23485 105.644 0.302368V0.302368Z" fill="white"/>
<path fill-rule="evenodd" clip-rule="evenodd" d="M88.6475 9.82515C88.5695 9.82236 88.5054 9.82236 88.458 9.82515C88.171 9.84749 88.341 10.1043 88.341 10.1043C88.38 10.1211 88.4135 10.1351 88.4497 10.1434C88.4413 10.1183 88.4441 10.0904 88.4636 10.0653C88.4943 10.0234 88.5584 10.0178 88.6057 10.0541C88.6475 10.0848 88.6587 10.1406 88.6364 10.1825C89.0934 10.2132 89.3275 9.75256 89.3275 9.75256C89.1185 9.82794 88.8454 9.82794 88.6475 9.82515Z" fill="white"/>
</svg>
