<svg width="157" height="49" viewBox="0 0 157 49" fill="none" xmlns="http://www.w3.org/2000/svg">
<path d="M19.1257 20.4601C19.429 19.8238 24.6918 11.0991 25.1778 10.3091C25.4104 9.93324 25.6098 9.91616 25.5018 10.3731C25.427 10.6977 23.8818 16.2494 22.5858 21.5918C21.8714 21.3014 19.8942 20.648 19.1257 20.4601ZM5.56357 30.6666C4.84496 30.0261 4.93219 27.9805 6.91771 25.9306C8.9863 23.7996 10.6644 22.8302 13.6926 22.7021C12.3966 24.6794 11.3789 26.1228 10.1369 27.8481C8.21369 30.53 6.55217 31.5464 5.56357 30.6666ZM41.4109 20.3362C41.1076 20.3362 33.1905 20.3533 32.6297 20.3362C32.069 20.3192 32.0316 20.9256 32.4428 21.1818C33.3068 21.7284 33.4813 22.48 33.1323 23.932C32.6131 26.0929 32.0981 27.7712 30.7605 30.1713C29.2444 32.883 27.0927 34.2496 26.0293 33.8183C25.1778 33.4724 25.2734 32.1613 26.0293 29.0908C26.1083 28.7705 26.3326 27.8609 26.6358 26.6182C27.7116 27.4936 28.6712 28.4844 29.4728 29.5563C29.4812 29.5221 30.0627 27.2203 30.1042 27.1307C29.3815 26.2509 28.397 25.2602 27.2049 24.3206C28.3098 19.8281 29.8135 13.7127 30.0461 12.6707C30.4656 10.813 30.9848 8.96384 32.4927 8.09692C33.095 7.75528 33.0285 7.09335 32.3805 7.09335C31.8197 7.09335 26.7978 7.1147 26.2329 7.1147C24.5298 7.1147 23.2546 9.34818 22.1746 10.9027C21.0489 12.5169 16.729 18.7348 15.9522 19.8451C11.9521 19.4992 7.70278 20.285 3.95189 23.8851C-0.513443 28.1769 -0.251753 33.1307 0.699467 34.839C2.40253 37.8838 6.14095 37.2219 8.75784 35.014C11.7278 32.5115 14.0747 29.4837 17.9087 22.685C18.8557 22.8473 21.1071 23.552 22.0251 23.9107C21.2192 27.2417 20.5339 30.073 20.3553 30.8417C20.2016 31.5165 20.0686 32.1571 19.9482 32.7934C19.5203 35.0525 21.0448 37.6703 24.0978 37.6703C27.4001 37.6703 30.1915 35.0098 32.1396 31.7044C33.6682 29.1164 34.5488 26.678 35.4792 22.8003C35.6329 22.7961 36.0815 22.8003 36.0815 22.8003C36.0815 22.8003 33.61 32.8916 33.365 33.8781C32.9496 35.5735 33.5685 37.3329 35.5831 37.444C36.9538 37.5208 38.2664 37.0126 39.2052 36.2183C39.2426 36.0774 39.741 33.9251 39.8034 33.6945C39.1554 34.4119 38.1335 34.9329 37.7472 34.5784C37.4025 34.2582 37.5188 33.7884 37.7763 32.7037C37.9424 31.9991 39.5957 25.1278 39.8989 23.9278C40.2727 22.4373 40.5303 21.7498 41.4399 21.1178C41.7972 20.8701 41.8263 20.3362 41.4109 20.3362Z" fill="#CF142B"/>
<path d="M46.9187 20.0757C45.2489 20.0544 43.28 21.1007 42.6611 21.6814C42.6278 21.801 42.1668 23.6544 42.0546 24.0217C42.6154 23.4623 43.5084 23.0694 43.928 23.3811C44.2727 23.6374 44.2727 24.1968 44.011 25.226C43.8573 25.8324 42.1626 32.8531 41.9466 33.8524C41.5146 35.8425 42.2581 37.3799 44.2727 37.4952C45.6476 37.5678 46.8024 37.0938 47.7411 36.2995C47.7868 36.1286 48.3019 33.972 48.3559 33.767C47.7121 34.4888 46.6778 34.9927 46.2915 34.6382C45.9467 34.3179 46.0381 33.7969 46.3081 32.7122C46.4701 32.0546 48.4556 24.0559 48.6757 23.0608C48.9997 21.5918 48.709 20.1014 46.9187 20.0757Z" fill="#CF142B"/>
<path d="M69.6572 34.1087C68.7807 33.7884 68.465 32.4005 69.2709 29.1378C70.5004 24.1669 72.3073 22.5868 73.5867 22.6082C74.459 22.6252 74.945 23.4238 74.7123 24.7733C74.38 26.1271 73.9771 27.7499 73.6116 29.236C73.5991 29.2702 73.5867 29.3086 73.5742 29.3641C73.055 31.414 71.5098 34.7834 69.6572 34.1087ZM74.6708 37.4867C76.0457 37.5635 77.3583 37.0511 78.2929 36.2568C78.3303 36.1158 78.8288 33.9592 78.8952 33.7243C78.2472 34.4461 77.2212 34.9713 76.8391 34.6126C76.4902 34.2923 76.6065 33.8183 76.864 32.7336C77.0343 32.0247 78.6501 25.2175 78.9534 24.0132C79.3272 22.5228 79.5391 21.7412 80.4944 21.1989C80.9015 20.9683 80.9264 20.3661 80.4612 20.3661H76.9097C76.0914 20.3661 75.7217 20.5967 75.4517 21.7199C74.8286 20.695 73.8317 20.2679 72.7102 20.2679C69.2916 20.2679 66.5127 23.4623 65.1711 28.6381C64.0329 33.0197 64.4109 36.2354 66.7869 37.2518C68.6686 38.0547 71.003 36.9272 72.3987 34.8945C72.4568 36.2269 73.1505 37.4013 74.6708 37.4867Z" fill="#CF142B"/>
<path d="M46.9527 14.349C45.6277 14.8785 44.8177 16.1255 45.1417 17.1419C45.4698 18.154 46.8073 18.5469 48.1324 18.0173C49.4575 17.4878 50.2674 16.2408 49.9393 15.2244C49.6153 14.2123 48.2778 13.8194 46.9527 14.349Z" fill="#CF142B"/>
<path d="M129.753 20.3661H126.202C125.384 20.3661 125.014 20.5967 124.748 21.7199C124.121 20.695 123.128 20.2679 122.002 20.2679C118.584 20.2679 115.797 23.458 114.463 28.6381C113.433 32.6482 113.67 35.8468 115.664 37.034C116.195 37.2817 116.507 36.8504 116.424 36.94C115.772 37.6191 114.783 38.486 113.715 39.4511C111.622 41.3429 108.976 43.901 106.554 43.6063C105.125 43.4312 103.946 42.2697 104.689 40.096C102.7 40.207 101.823 42.4789 101.856 44.1231C101.915 46.7494 103.63 48.4448 106.521 48.4662C110.662 48.4918 115.626 41.864 116.91 40.3735C117.691 39.4767 118.816 38.2212 119.622 37.2091C119.859 36.8717 119.959 36.7649 120.237 36.4318C120.274 36.2909 120.727 34.3307 120.81 34.0062C120.258 34.5827 119.431 34.7322 118.908 34.5357C118.035 34.2026 117.757 32.4005 118.563 29.1378C119.793 24.1669 121.599 22.5783 122.879 22.6082C123.793 22.6338 124.312 23.5391 123.921 25.0893C123.913 25.132 123.905 25.1662 123.901 25.2004C123.095 28.4929 121.969 33.0453 121.799 33.6902C121.313 35.5692 121.948 37.3756 123.963 37.4867C125.338 37.5635 126.65 37.0511 127.585 36.2568C127.627 36.0518 128.121 33.9592 128.187 33.7243C127.539 34.4461 126.513 34.9713 126.131 34.6126C125.786 34.2923 125.899 33.8183 126.156 32.7336C126.326 32.0247 127.946 25.2175 128.245 24.0132C128.619 22.5228 128.831 21.7412 129.787 21.1989C130.198 20.9683 130.219 20.3661 129.753 20.3661Z" fill="#CF142B"/>
<path d="M98.3516 37.444C101.567 38.0717 104.416 35.7998 105.43 32.0076C106.14 29.3385 105.409 27.0282 104.046 26.0673C104.836 25.3584 105.882 24.5171 106.917 24.2139C108.134 23.8637 108.645 24.5256 108.287 25.9947C107.772 28.1214 106.551 33.1307 106.41 33.6902C105.965 35.471 106.559 37.3756 108.574 37.4867C109.949 37.5635 111.262 37.0511 112.196 36.2568C112.234 36.1158 112.732 33.9549 112.798 33.7243C112.15 34.4461 111.125 34.9713 110.738 34.6126C110.393 34.2923 110.51 33.8183 110.767 32.7336C110.9 32.1741 112.749 24.7819 113.081 23.3726C113.492 21.6174 113.089 20.2935 111.482 20.2935C109.064 20.2935 105.862 21.9633 102.601 25.8495C103.552 27.0751 103.922 29.1292 103.207 31.8624C102.414 34.8774 101.135 35.9877 100.379 35.787C99.9799 35.6802 99.5936 35.313 99.9466 33.814C100.229 32.6097 102.684 22.6295 102.946 21.5661C103.133 20.8145 102.875 20.3491 102.302 20.3491C101.866 20.3491 98.5427 20.3362 98.3059 20.3405C97.8116 20.3491 97.8157 20.8957 98.0899 21.0622C98.6299 21.3911 98.7296 21.9377 98.472 23.1719C98.2727 24.1285 96.4491 31.3627 96.2124 32.3193C95.5893 34.8731 96.2539 37.0383 98.3516 37.444Z" fill="#CF142B"/>
<path d="M63.8957 8.55386C64.9965 8.74603 65.063 10.6123 64.0037 12.7774C62.8781 15.0792 60.581 17.2188 57.5113 17.791C59.3099 12.9311 61.6278 8.1567 63.8957 8.55386ZM56.9838 19.307C60.2487 18.7262 64.7722 16.2536 66.2053 11.4877C67.0402 8.71187 66.2717 6.43568 63.7005 6.24351C58.9984 5.89332 54.072 12.5041 51.5133 23.2359C50.5786 27.1733 50.1633 29.6503 50.1466 32.1784C50.13 35.3514 51.3679 36.8973 53.3409 37.444C56.7221 38.3835 61.2207 35.9792 62.9404 29.4239C64.7847 22.3989 62.3048 19.6615 59.4595 20.0757C59.1978 20.2679 57.2538 21.7284 57.2538 21.7284L56.826 23.6203C57.4698 23.1889 58.2507 23.0438 58.7949 23.3C59.933 23.8338 59.9455 26.1399 59.0815 29.6204C58.1469 33.3827 56.232 35.6632 54.9983 35.2318C53.8685 34.8347 53.748 32.8916 54.9194 27.3655C55.4178 24.9954 56.3732 21.2501 56.9838 19.307Z" fill="#CF142B"/>
<path d="M91.6509 20.2209C90.2511 20.2295 88.5854 20.9555 87.385 22.843C87.5428 22.1768 87.6508 21.7327 87.6882 21.5918C87.8751 20.8402 87.6134 20.3747 87.0402 20.3747C86.6082 20.3747 83.2852 20.3619 83.0484 20.3661C82.5499 20.3747 82.5583 20.9213 82.8324 21.0879C83.3724 21.4167 83.4721 21.959 83.2146 23.1975C83.011 24.1498 78.9611 40.5273 78.7409 41.4881C78.2425 43.6277 77.6111 46.4206 75.4428 47.3089C74.9485 47.5096 75.0856 47.8 75.3389 47.8085C79.0275 47.8854 82.6413 47.8854 83.7089 47.847C83.9913 47.8341 84.037 47.5651 83.7795 47.4284C82.0972 46.5444 82.2301 44.3195 82.7452 42.1586C82.9113 41.4625 84.4607 35.0012 85.7858 29.4965C85.7982 29.4624 85.8231 29.3855 85.8522 29.2531C86.7494 25.5121 88.6643 23.1548 89.9645 23.505C91.4848 23.9149 90.9157 27.0324 90.2885 29.3513C89.7111 31.4951 88.6311 34.0788 87.5636 33.8226C87.1025 33.7073 86.845 32.9727 87.2977 31.9606C87.1357 32.0247 85.711 32.4902 85.6238 32.5072C84.5728 35.7785 86.0391 37.4311 87.8377 37.4226C90.5876 37.4055 93.192 34.271 94.596 29.2659C95.9003 24.611 95.1983 20.1953 91.6509 20.2209Z" fill="#CF142B"/>
<path d="M6.72679 45.8953C7.5077 45.8953 7.74862 45.6861 7.74862 44.9601C7.74862 44.2341 7.5077 44.0248 6.72679 44.0248C6.26572 44.0248 5.97495 44.0419 5.97495 44.0419V45.8953H6.72679ZM5.67172 47.7573C5.5928 47.7573 5.55957 47.7146 5.55957 47.6292V43.696C5.90018 43.696 6.24495 43.6789 6.66033 43.6789C7.78601 43.6789 8.18062 43.9864 8.18062 44.9216C8.18062 45.9124 7.80262 46.2455 6.66033 46.2455H5.97495V47.7573H5.67172Z" fill="#898989"/>
<path d="M10.4648 45.5409C10.4648 45.4811 10.4648 45.4683 10.4024 45.417C10.3318 45.3572 10.1117 45.195 9.78353 45.195C9.31415 45.195 8.92784 45.4854 8.92784 46.3266C8.92784 47.0612 9.2103 47.4541 9.76276 47.4541C10.1283 47.4541 10.3318 47.2961 10.4024 47.2363C10.4523 47.1893 10.4648 47.1807 10.4648 47.1167V45.5409ZM10.714 47.7573C10.5977 47.7573 10.5644 47.7402 10.5354 47.6889C10.4897 47.6292 10.4814 47.5822 10.4315 47.5822C10.3858 47.5822 10.3651 47.5993 10.3111 47.6334C10.1449 47.7402 9.88322 47.8213 9.62984 47.8213C9.00676 47.8213 8.5 47.3729 8.5 46.3352C8.5 45.2975 9.05246 44.8277 9.62984 44.8277C9.88322 44.8277 10.1449 44.9131 10.3111 45.0156C10.3651 45.0498 10.3858 45.0668 10.4315 45.0668C10.4814 45.0668 10.4897 45.0241 10.5354 44.9601C10.5644 44.9131 10.5977 44.896 10.714 44.896H10.8635V47.7573H10.714Z" fill="#898989"/>
<path d="M11.7313 47.7573C11.6524 47.7573 11.6191 47.7146 11.6191 47.6292V44.896H11.7687C11.885 44.896 11.9141 44.9131 11.9473 44.9644C11.993 45.0241 12.0013 45.0668 12.0511 45.0668C12.0927 45.0668 12.1176 45.0498 12.1716 45.0199C12.3377 44.9131 12.5953 44.8277 12.8487 44.8277C12.8944 44.8277 12.9525 44.8362 12.9525 44.8362V45.2291C12.9525 45.2291 12.8237 45.212 12.7157 45.212C12.3876 45.212 12.1467 45.3743 12.0802 45.4341C12.0179 45.4854 12.0179 45.4896 12.0179 45.5537V47.7573H11.7313Z" fill="#898989"/>
<path d="M14.8351 47.7786C14.7105 47.8085 14.5236 47.8256 14.3574 47.8256C13.8174 47.8256 13.6014 47.5608 13.6014 46.9331V45.2206H13.1943V44.896H13.6014V44.2725L14.0043 44.153V44.896H14.7479V45.2206H14.0043V46.963C14.0043 47.3345 14.0874 47.5053 14.4654 47.5053C14.6232 47.5053 14.8143 47.484 14.8143 47.484L14.8351 47.7786Z" fill="#898989"/>
<path d="M17.9835 45.1608C17.4102 45.1608 17.1278 45.558 17.1278 46.3224C17.1278 47.0911 17.4102 47.484 17.9835 47.484C18.5567 47.484 18.835 47.0911 18.835 46.3224C18.835 45.558 18.5567 45.1608 17.9835 45.1608ZM17.9835 47.8214C17.1527 47.8214 16.7041 47.3003 16.7041 46.3224C16.7041 45.353 17.1527 44.8234 17.9835 44.8234C18.8142 44.8234 19.2628 45.3444 19.2628 46.3224C19.2628 47.3003 18.8142 47.8214 17.9835 47.8214Z" fill="#898989"/>
<path d="M20.1432 47.7573C20.0643 47.7573 20.0311 47.7146 20.0311 47.6292V45.2206H19.624V44.896H20.0311V44.5501C20.0311 43.9223 20.2471 43.6618 20.7871 43.6618C20.9532 43.6618 21.136 43.6789 21.2606 43.7088L21.2399 44.0035C21.2399 44.0035 21.0529 43.9821 20.8951 43.9821C20.5171 43.9821 20.4299 44.153 20.4299 44.5245V44.896H21.1651V45.2206H20.4299V47.7573H20.1432Z" fill="#898989"/>
<path d="M24.5839 47.7786C24.4593 47.8085 24.2765 47.8256 24.1103 47.8256C23.5703 47.8256 23.3543 47.5608 23.3543 46.9331V45.2206H22.9473V44.896H23.3543V44.2725L23.7531 44.153V44.896H24.4966V45.2206H23.7531V46.963C23.7531 47.3345 23.8403 47.5053 24.2183 47.5053C24.372 47.5053 24.5631 47.484 24.5631 47.484L24.5839 47.7786Z" fill="#898989"/>
<path d="M27.0258 47.7573C26.9427 47.7573 26.9136 47.7146 26.9136 47.6292V45.8953C26.9136 45.3914 26.7516 45.195 26.2199 45.195C25.8378 45.195 25.601 45.3572 25.5304 45.417C25.4681 45.4683 25.4681 45.4725 25.4681 45.5366V47.7573H25.1815C25.1026 47.7573 25.0693 47.7146 25.0693 47.6292V43.7174H25.3559C25.439 43.7174 25.4681 43.7601 25.4681 43.8455V44.9345C25.4681 45.0199 25.4847 45.0498 25.5221 45.0498C25.547 45.0498 25.5719 45.0412 25.6093 45.0199C25.7879 44.9216 26.0206 44.8277 26.303 44.8277C26.9718 44.8277 27.3124 45.1352 27.3124 45.7843V47.7573H27.0258Z" fill="#898989"/>
<path d="M28.9738 46.3352C29.3642 46.3352 29.5802 46.2583 29.6882 46.1089C29.7464 46.0192 29.7755 45.9081 29.7755 45.78C29.7755 45.4341 29.5761 45.1523 29.0942 45.1523C28.4795 45.1523 28.3341 45.78 28.3341 46.2455C28.4629 46.2968 28.6747 46.3352 28.9738 46.3352ZM30.0704 47.6847C30.0704 47.6847 29.6259 47.8256 29.2562 47.8256C28.3382 47.8256 27.9062 47.2875 27.9062 46.3224C27.9062 45.3786 28.3258 44.8277 29.0984 44.8277C29.7755 44.8277 30.2075 45.2206 30.2075 45.7672C30.2075 46.0405 30.1202 46.2412 29.9707 46.3779C29.7588 46.5743 29.4182 46.6469 29.0112 46.6469C28.6249 46.6469 28.3424 46.5701 28.3424 46.5701C28.4047 47.2832 28.7702 47.4797 29.3767 47.4797C29.5968 47.4797 30.0164 47.39 30.0164 47.39L30.0704 47.6847Z" fill="#898989"/>
<path d="M34.9229 47.6633C34.6529 47.7359 34.2167 47.8214 33.8429 47.8214C32.7629 47.8214 32.2354 47.2576 32.2354 45.7245C32.2354 44.2469 32.9041 43.6362 33.8179 43.6362C34.3953 43.6362 34.9229 43.8412 34.9229 43.8412L34.7982 44.2127C34.7816 44.2512 34.7609 44.2725 34.7276 44.2725C34.7069 44.2725 34.6736 44.264 34.6362 44.2341C34.4576 44.1103 34.1793 44.0163 33.8304 44.0163C33.17 44.0163 32.6715 44.4177 32.6715 45.7245C32.6715 47.0484 33.0121 47.4327 33.9343 47.4327C34.2375 47.4327 34.6196 47.3729 34.8647 47.3345L34.9229 47.6633Z" fill="#898989"/>
<path d="M37.236 45.5409C37.236 45.4811 37.236 45.4683 37.1778 45.417C37.1072 45.3572 36.8829 45.195 36.5548 45.195C36.0854 45.195 35.6991 45.4854 35.6991 46.3266C35.6991 47.0612 35.9815 47.4541 36.534 47.4541C36.8995 47.4541 37.1072 47.2961 37.1778 47.2363C37.2235 47.1893 37.236 47.1807 37.236 47.1167V45.5409ZM37.4852 47.7573C37.3689 47.7573 37.3357 47.7402 37.3066 47.6889C37.2609 47.6292 37.2526 47.5822 37.2027 47.5822C37.1612 47.5822 37.1363 47.5993 37.0823 47.6334C36.9161 47.7402 36.6544 47.8213 36.4052 47.8213C35.778 47.8213 35.2754 47.3729 35.2754 46.3352C35.2754 45.2975 35.8237 44.8277 36.4052 44.8277C36.6544 44.8277 36.9161 44.9131 37.0823 45.0156C37.1363 45.0498 37.1612 45.0668 37.2027 45.0668C37.2526 45.0668 37.2609 45.0241 37.3066 44.9601C37.3357 44.9131 37.3689 44.896 37.4852 44.896H37.6347V47.7573H37.4852Z" fill="#898989"/>
<path d="M38.5069 47.7573C38.4239 47.7573 38.3906 47.7146 38.3906 47.6292V44.896H38.5443C38.6565 44.896 38.6897 44.9131 38.7229 44.9644C38.7645 45.0241 38.7769 45.0668 38.8226 45.0668C38.8683 45.0668 38.8891 45.0498 38.9431 45.0199C39.1092 44.9131 39.3709 44.8277 39.6202 44.8277C39.6658 44.8277 39.724 44.8362 39.724 44.8362V45.2291C39.724 45.2291 39.5952 45.212 39.4872 45.212C39.1591 45.212 38.9182 45.3743 38.8517 45.4341C38.7894 45.4854 38.7894 45.4896 38.7894 45.5537V47.7573H38.5069Z" fill="#898989"/>
<path d="M41.211 47.7573C41.0532 47.7829 40.9576 47.7957 40.8122 47.7957C40.3719 47.7957 40.2432 47.5053 40.2432 46.9587V43.7174H40.5298C40.6128 43.7174 40.6419 43.7601 40.6419 43.8455V46.9886C40.6419 47.3302 40.7042 47.4712 40.9659 47.4712C41.0033 47.4712 41.0448 47.4712 41.1819 47.4541L41.211 47.7573Z" fill="#898989"/>
<path d="M41.5477 47.3858C41.5477 47.3858 41.8966 47.4797 42.2953 47.4797C42.719 47.4797 42.9516 47.3473 42.9516 46.9886C42.9516 46.7281 42.852 46.5615 42.3493 46.4847C41.7886 46.395 41.4688 46.2412 41.4688 45.7117C41.4688 45.306 41.6598 44.8234 42.5487 44.8234C42.8976 44.8234 43.1178 44.896 43.2632 44.9473L43.1635 45.2078C43.1303 45.2889 43.1136 45.3231 43.0721 45.3231C43.0389 45.3231 43.0223 45.2804 42.8727 45.2206C42.7938 45.1822 42.69 45.1651 42.5612 45.1651C42.071 45.1651 41.8966 45.3615 41.8966 45.6647C41.8966 46.0277 42.1334 46.079 42.557 46.1644C43.1303 46.2754 43.3753 46.506 43.3753 46.9544C43.3753 47.5181 43.043 47.8214 42.2912 47.8214C41.934 47.8214 41.4937 47.689 41.4937 47.689L41.5477 47.3858Z" fill="#898989"/>
<path d="M44.3724 47.1124C44.3724 47.1722 44.3724 47.185 44.4306 47.2363C44.5012 47.2961 44.7213 47.4541 45.0536 47.4541C45.523 47.4541 45.9052 47.1679 45.9052 46.3224C45.9052 45.5921 45.6227 45.195 45.0744 45.195C44.7047 45.195 44.5012 45.3572 44.4306 45.417C44.3849 45.464 44.3724 45.4725 44.3724 45.5366V47.1124ZM43.9736 47.7573V43.7174H44.2561C44.3392 43.7174 44.3724 43.7558 44.3724 43.8455V44.9345C44.3724 45.0199 44.389 45.0498 44.4264 45.0498C44.4472 45.0498 44.4721 45.0412 44.5095 45.0199C44.6881 44.9259 44.9207 44.8277 45.2032 44.8277C45.8304 44.8277 46.333 45.2804 46.333 46.3181C46.333 47.3558 45.7805 47.8213 45.2032 47.8213C44.9498 47.8213 44.6881 47.7402 44.5219 47.6334C44.4679 47.5993 44.4472 47.5822 44.4056 47.5822C44.3558 47.5822 44.3433 47.6292 44.3018 47.6889C44.2686 47.7402 44.2353 47.7573 44.1232 47.7573H43.9736Z" fill="#898989"/>
<path d="M47.8869 46.3352C48.2773 46.3352 48.4933 46.2583 48.6013 46.1089C48.6595 46.0192 48.6886 45.9081 48.6886 45.78C48.6886 45.4341 48.4892 45.1523 48.0073 45.1523C47.3884 45.1523 47.2472 45.78 47.2472 46.2455C47.3759 46.2968 47.5878 46.3352 47.8869 46.3352ZM48.9876 47.6847C48.9876 47.6847 48.539 47.8256 48.1693 47.8256C47.2513 47.8256 46.8193 47.2875 46.8193 46.3224C46.8193 45.3786 47.243 44.8277 48.0115 44.8277C48.6886 44.8277 49.1205 45.2206 49.1205 45.7672C49.1205 46.0405 49.0333 46.2412 48.8838 46.3779C48.6719 46.5743 48.3313 46.6469 47.9242 46.6469C47.5379 46.6469 47.2555 46.5701 47.2555 46.5701C47.3178 47.2832 47.6833 47.4797 48.2898 47.4797C48.5099 47.4797 48.9336 47.39 48.9336 47.39L48.9876 47.6847Z" fill="#898989"/>
<path d="M49.826 47.7573C49.7471 47.7573 49.7139 47.7146 49.7139 47.6292V44.896H49.8634C49.9797 44.896 50.0129 44.9131 50.042 44.9644C50.0877 45.0241 50.096 45.0668 50.1459 45.0668C50.1874 45.0668 50.2123 45.0498 50.2663 45.0199C50.4325 44.9131 50.6942 44.8277 50.9434 44.8277C50.9891 44.8277 51.0472 44.8362 51.0472 44.8362V45.2291C51.0472 45.2291 50.9185 45.212 50.8105 45.212C50.4823 45.212 50.2456 45.3743 50.1749 45.4341C50.1126 45.4854 50.1126 45.4896 50.1126 45.5537V47.7573H49.826Z" fill="#898989"/>
<path d="M53.1696 45.5409C53.1696 45.4811 53.1696 45.4683 53.1114 45.417C53.0408 45.3572 52.8207 45.195 52.4884 45.195C52.019 45.195 51.6368 45.4854 51.6368 46.3267C51.6368 47.0612 51.9193 47.4541 52.4676 47.4541C52.8373 47.4541 53.0408 47.2961 53.1114 47.2363C53.1613 47.1893 53.1696 47.1808 53.1696 47.1167V45.5409ZM53.1696 47.7146C53.1696 47.6334 53.1571 47.5993 53.1197 47.5993C53.0948 47.5993 53.0657 47.6121 53.0284 47.6334C52.8539 47.7274 52.6213 47.8213 52.3388 47.8213C51.7116 47.8213 51.209 47.3729 51.209 46.3352C51.209 45.2975 51.7614 44.8277 52.3388 44.8277C52.5922 44.8277 52.8539 44.9131 53.02 45.0156C53.074 45.0498 53.0948 45.0668 53.1405 45.0668C53.1862 45.0668 53.1987 45.0241 53.2402 44.9601C53.2734 44.9131 53.3067 44.896 53.4188 44.896H53.5683V47.8811C53.5683 48.7267 53.1447 49 52.559 49C51.9401 49 51.6036 48.4961 51.6036 48.4961L51.8362 48.274C51.8362 48.274 52.1228 48.6584 52.534 48.6584C52.8996 48.6584 53.1696 48.4833 53.1696 47.9794V47.7146Z" fill="#898989"/>
<path d="M58.5201 47.7573C58.4162 47.7573 58.3788 47.7359 58.3373 47.6847C58.3041 47.6463 58.275 47.5822 58.2044 47.5822C58.1587 47.5822 58.1296 47.6078 58.0756 47.6334C57.8721 47.7402 57.5232 47.8214 57.249 47.8214C56.2729 47.8214 55.7578 47.2576 55.7578 45.716C55.7578 44.2341 56.4266 43.6362 57.4775 43.6362C58.0632 43.6362 58.5575 43.8412 58.5575 43.8412L58.4328 44.217C58.4162 44.2597 58.3996 44.2811 58.3664 44.2811C58.3415 44.2811 58.3041 44.264 58.2542 44.2298C58.0632 44.0889 57.8181 44.0163 57.4982 44.0163C56.6966 44.0163 56.2189 44.4092 56.2189 45.716C56.2189 46.9886 56.5221 47.4242 57.5107 47.4242C57.9136 47.4242 58.1961 47.2576 58.1961 47.2576C58.3082 47.1808 58.3124 47.1466 58.3124 46.9886V45.763H58.6031C58.6862 45.763 58.7195 45.8014 58.7195 45.8911V47.7573H58.5201Z" fill="#898989"/>
<path d="M59.6124 47.7573C59.5293 47.7573 59.4961 47.7146 59.4961 47.6292V44.896H59.6498C59.7619 44.896 59.7952 44.9131 59.8284 44.9644C59.8699 45.0241 59.8824 45.0668 59.9281 45.0668C59.9738 45.0668 59.9945 45.0498 60.0485 45.0199C60.2147 44.9131 60.4764 44.8277 60.7298 44.8277C60.7713 44.8277 60.8336 44.8362 60.8336 44.8362V45.2291C60.8336 45.2291 60.7007 45.212 60.5927 45.212C60.2645 45.212 60.0278 45.3743 59.9572 45.4341C59.8949 45.4854 59.8949 45.4896 59.8949 45.5537V47.7573H59.6124Z" fill="#898989"/>
<path d="M62.2794 45.1608C61.7061 45.1608 61.4278 45.558 61.4278 46.3224C61.4278 47.0911 61.7061 47.484 62.2794 47.484C62.8526 47.484 63.1309 47.0911 63.1309 46.3224C63.1309 45.558 62.8526 45.1608 62.2794 45.1608ZM62.2794 47.8214C61.4486 47.8214 61 47.3003 61 46.3224C61 45.353 61.4486 44.8234 62.2794 44.8234C63.1101 44.8234 63.5587 45.3444 63.5587 46.3224C63.5587 47.3003 63.1101 47.8214 62.2794 47.8214Z" fill="#898989"/>
<path d="M66.2172 47.7573C66.1051 47.7573 66.0719 47.7402 66.0386 47.689C65.9971 47.6292 65.9846 47.5822 65.9348 47.5822C65.8932 47.5822 65.8725 47.5993 65.8185 47.6334C65.6482 47.7402 65.399 47.8213 65.1539 47.8213C64.4934 47.8213 64.1611 47.5181 64.1611 46.869V44.896H64.4436C64.5267 44.896 64.5599 44.9345 64.5599 45.0241V46.758C64.5599 47.2619 64.7136 47.4541 65.2328 47.4541C65.6066 47.4541 65.8393 47.2961 65.9099 47.2363C65.968 47.185 65.968 47.1722 65.968 47.1124V44.896H66.2546C66.3377 44.896 66.3709 44.9345 66.3709 45.0241V47.7573H66.2172Z" fill="#898989"/>
<path d="M67.4723 47.1124C67.4723 47.1722 67.4723 47.185 67.5304 47.2363C67.601 47.2961 67.8212 47.4541 68.1535 47.4541C68.6187 47.4541 69.005 47.1679 69.005 46.3224C69.005 45.5921 68.7267 45.195 68.1742 45.195C67.8087 45.195 67.601 45.3572 67.5304 45.417C67.4806 45.464 67.4723 45.4725 67.4723 45.5366V47.1124ZM67.1856 48.7438C67.1026 48.7438 67.0693 48.7053 67.0693 48.6156V44.896H67.223C67.3352 44.896 67.3684 44.9131 67.4016 44.9644C67.4432 45.0241 67.4556 45.0668 67.5055 45.0668C67.547 45.0668 67.5678 45.0498 67.6218 45.0199C67.7921 44.9131 68.0496 44.8277 68.303 44.8277C68.9302 44.8277 69.4328 45.2804 69.4328 46.3181C69.4328 47.3558 68.8804 47.8213 68.303 47.8213C68.0206 47.8213 67.7921 47.7274 67.6135 47.6334C67.5761 47.6121 67.547 47.5993 67.5262 47.5993C67.4889 47.5993 67.4723 47.6334 67.4723 47.7188V48.7438H67.1856Z" fill="#898989"/>
<path d="M156.874 0C150.806 7.03355 143.927 12.0941 135.964 13.892C136.259 15.3611 136.222 17.159 135.221 17.3597C134.128 17.5817 135.2 19.5633 137.356 20.7761C133.705 19.3754 134.365 16.6849 129.95 15.7155C129.626 15.6429 129.077 15.8394 129.069 16.2622C128.558 14.9725 128.753 14.4984 130.12 14.4771C130.249 14.0927 131.017 14.0201 131.79 14.0543V14.05C132.126 14.0756 132.313 14.003 132.463 13.9048C132.641 13.7853 132.558 13.482 132.558 13.482C132.442 13.6486 132.093 13.6571 131.74 13.6144C128.467 12.9482 122.971 8.97664 118.784 4.42426C119.353 6.14528 120.159 7.71257 121.43 8.98091C121.468 9.01508 121.438 9.07059 121.393 9.05778C120.608 8.84853 120.525 8.84853 119.702 8.26346C120.533 9.80085 121.33 10.6123 122.626 11.2571C122.726 11.3041 122.701 11.4664 122.585 11.4706C122.07 11.4834 121.38 11.3041 120.882 11.1503C124.109 18.6537 130.149 16.0999 133.858 18.9611C134.112 19.1576 134.116 19.2473 134.012 19.5248C133.667 20.4387 133.48 21.3782 133.086 22.7747C136.018 21.942 138.793 21.6729 142.61 22.6679C144.268 23.0993 139.848 20.1313 139.009 19.6145C138.743 19.4522 138.099 19.0209 138.452 18.833C143.034 16.4244 150.145 18.9483 155.105 9.76669C153.265 10.5994 152.085 10.1724 150.893 10.5055C154.108 9.60868 156.035 7.80225 156.837 5.52179C155.45 6.59369 153.564 6.64494 152.355 7.44352C155.246 5.53033 156.251 2.9552 156.874 0V0Z" fill="#C59E5C"/>
<path fill-rule="evenodd" clip-rule="evenodd" d="M131.54 14.5625C131.424 14.5582 131.328 14.5582 131.258 14.5625C130.83 14.5967 131.083 14.9895 131.083 14.9895C131.141 15.0152 131.191 15.0365 131.245 15.0493C131.233 15.0109 131.237 14.9682 131.266 14.9298C131.312 14.8657 131.407 14.8572 131.478 14.9127C131.54 14.9596 131.557 15.0451 131.524 15.1091C132.205 15.1561 132.554 14.4515 132.554 14.4515C132.242 14.5668 131.835 14.5668 131.54 14.5625Z" fill="url(#paint0_linear_3_1551)"/>
<defs>
<linearGradient id="paint0_linear_3_1551" x1="124.686" y1="8.92963" x2="154.274" y2="31.3323" gradientUnits="userSpaceOnUse">
<stop stop-color="#EBB45F"/>
<stop offset="0.00392157" stop-color="#D8AA5F"/>
<stop offset="0.0117647" stop-color="#C59F5F"/>
<stop offset="1" stop-color="#C59F5F"/>
</linearGradient>
</defs>
</svg>
