<svg width="24" height="24" fill="none" xmlns="http://www.w3.org/2000/svg"><path d="M3.5 7.062a2 2 0 0 1 1.515-1.94l1.817-.455a2 2 0 0 1 1.297.113l2.921 1.298a2 2 0 0 0 1.841-.113l1.134-.68A2 2 0 0 1 15.054 5H18.5a2 2 0 0 1 2 2v3.99a2 2 0 0 1-.244.958l-2.509 4.6a2 2 0 0 1-.682.729l-3.991 2.54a2 2 0 0 1-2.148 0l-3.99-2.54a2 2 0 0 1-.683-.73l-2.509-4.6a2 2 0 0 1-.244-.957V7.062Z" fill="#D1112E"/><path fill-rule="evenodd" clip-rule="evenodd" d="M4.527 6.431C3.855 7.308 3.5 8.511 3.5 9.767c0 1.303.512 2.596 1.323 3.822.81 1.225 1.9 2.354 3.006 3.32A29.001 29.001 0 0 0 12 19.923a24.537 24.537 0 0 0 1.13-.71c.832-.55 1.938-1.34 3.041-2.304 1.105-.966 2.195-2.095 3.006-3.32.811-1.226 1.323-2.519 1.323-3.822 0-1.256-.352-2.46-1.022-3.336C18.818 5.568 17.838 5 16.5 5c-1.352 0-2.367.561-3.055 1.134a5.549 5.549 0 0 0-.962 1.041 2.551 2.551 0 0 0-.055.083l-.426.71-.43-.708v-.002l-.01-.015a4.424 4.424 0 0 0-.235-.32 5.607 5.607 0 0 0-.776-.789C9.86 5.561 8.845 5 7.5 5c-1.331 0-2.312.568-2.973 1.431ZM12 20.5l-.243.437-.002-.001-.006-.003-.02-.012a11.262 11.262 0 0 1-.373-.218 30.013 30.013 0 0 1-4.185-3.04c-1.145-1-2.305-2.196-3.182-3.522C3.113 12.817 2.5 11.333 2.5 9.767c0-1.429.401-2.859 1.233-3.944C4.575 4.724 5.843 4 7.5 4c1.642 0 2.877.69 3.69 1.366.34.283.61.566.809.8.198-.234.466-.517.806-.8C13.617 4.689 14.852 4 16.5 4c1.662 0 2.932.724 3.772 1.823.83 1.086 1.228 2.516 1.228 3.944 0 1.566-.613 3.05-1.49 4.374-.876 1.326-2.036 2.521-3.181 3.521a30.015 30.015 0 0 1-4.557 3.259l-.016.009c-.002 0-.004.002-.005.003l-.006.003-.002.001L12 20.5Zm0 0 .243.437-.243.135-.243-.135L12 20.5Z" fill="#D1112E"/></svg>