<svg width="157" height="49" fill="none" xmlns="http://www.w3.org/2000/svg"><path d="M19.126 20.46c.303-.636 5.566-9.36 6.052-10.15.232-.377.432-.394.324.063-.075.325-1.62 5.876-2.916 11.219-.715-.29-2.692-.944-3.46-1.132ZM5.564 30.667c-.719-.64-.632-2.687 1.354-4.736 2.068-2.131 3.746-3.1 6.775-3.229a131.874 131.874 0 0 1-3.556 5.146c-1.923 2.682-3.585 3.698-4.573 2.819Zm35.847-10.33c-.303 0-8.22.016-8.781 0-.561-.018-.598.589-.187.845.864.546 1.038 1.298.69 2.75-.52 2.16-1.035 3.84-2.373 6.24-1.516 2.711-3.667 4.078-4.73 3.646-.852-.346-.757-1.657 0-4.727.078-.32.303-1.23.606-2.473a16.722 16.722 0 0 1 2.837 2.938c.008-.034.59-2.336.631-2.425a19.11 19.11 0 0 0-2.9-2.81c1.106-4.493 2.61-10.608 2.842-11.65.42-1.858.939-3.707 2.447-4.574.602-.342.535-1.004-.113-1.004-.56 0-5.582.022-6.147.022-1.703 0-2.978 2.233-4.058 3.788-1.126 1.614-5.446 7.832-6.223 8.942-4-.346-8.25.44-12 4.04C-.513 28.177-.252 33.131.699 34.84c1.704 3.045 5.442 2.383 8.059.175 2.97-2.503 5.317-5.53 9.15-12.329.948.162 3.2.867 4.117 1.226-.806 3.33-1.491 6.162-1.67 6.93a53.551 53.551 0 0 0-.407 1.952c-.428 2.26 1.097 4.877 4.15 4.877 3.302 0 6.094-2.66 8.042-5.966 1.528-2.588 2.409-5.026 3.34-8.904.153-.004.602 0 .602 0s-2.472 10.092-2.717 11.078c-.415 1.696.203 3.455 2.218 3.566 1.37.077 2.683-.431 3.622-1.226.038-.14.536-2.293.598-2.524-.648.718-1.67 1.239-2.056.884-.344-.32-.228-.79.03-1.874.165-.705 1.819-7.576 2.122-8.776.374-1.49.631-2.178 1.54-2.81.358-.248.387-.782-.028-.782Zm5.508-.261c-1.67-.022-3.639 1.025-4.258 1.605-.033.12-.494 1.973-.606 2.34.56-.559 1.453-.952 1.873-.64.345.256.345.816.083 1.845-.154.606-1.848 7.627-2.064 8.626-.432 1.99.311 3.528 2.326 3.643 1.375.073 2.53-.401 3.468-1.195.046-.171.56-2.328.615-2.533-.644.722-1.678 1.226-2.065.871-.344-.32-.253-.841.017-1.926.162-.657 2.148-8.656 2.368-9.651.324-1.47.033-2.96-1.757-2.985Zm22.738 14.033c-.876-.32-1.192-1.709-.386-4.971 1.23-4.971 3.036-6.551 4.316-6.53.872.017 1.358.816 1.125 2.165-.332 1.354-.735 2.977-1.1 4.463a.982.982 0 0 0-.038.128c-.519 2.05-2.064 5.42-3.917 4.745Zm5.014 3.378c1.375.076 2.687-.436 3.622-1.23.037-.141.536-2.298.602-2.533-.648.722-1.674 1.247-2.056.889-.349-.32-.233-.795.025-1.88.17-.708 1.786-7.515 2.09-8.72.373-1.49.585-2.272 1.54-2.814.407-.23.432-.833-.033-.833H76.91c-.819 0-1.188.23-1.458 1.354-.623-1.025-1.62-1.452-2.742-1.452-3.418 0-6.197 3.194-7.539 8.37-1.138 4.382-.76 7.597 1.616 8.614 1.882.803 4.216-.325 5.612-2.358.058 1.333.751 2.507 2.272 2.593ZM46.953 14.349c-1.325.53-2.135 1.776-1.811 2.793.328 1.012 1.665 1.405 2.99.875 1.326-.53 2.135-1.776 1.807-2.793-.324-1.012-1.661-1.405-2.986-.875Zm82.8 6.017h-3.551c-.818 0-1.188.23-1.454 1.354-.627-1.025-1.62-1.452-2.746-1.452-3.418 0-6.205 3.19-7.539 8.37-1.03 4.01-.793 7.209 1.201 8.396.531.248.843-.184.76-.094-.652.68-1.641 1.546-2.709 2.511-2.093 1.892-4.739 4.45-7.161 4.155-1.429-.175-2.608-1.336-1.865-3.51-1.989.111-2.866 2.383-2.833 4.027.059 2.626 1.774 4.322 4.665 4.343 4.141.026 9.105-6.602 10.389-8.093.781-.896 1.906-2.152 2.712-3.164.237-.337.337-.444.615-.777.037-.141.49-2.101.573-2.426-.552.577-1.379.726-1.902.53-.873-.333-1.151-2.136-.345-5.398 1.23-4.971 3.036-6.56 4.316-6.53.914.026 1.433.931 1.042 2.481-.008.043-.016.077-.02.111-.806 3.293-1.932 7.845-2.102 8.49-.486 1.88.149 3.686 2.164 3.797 1.375.076 2.687-.436 3.622-1.23.042-.205.536-2.298.602-2.533-.648.722-1.674 1.247-2.056.889-.345-.32-.232-.795.025-1.88.17-.708 1.79-7.515 2.089-8.72.374-1.49.586-2.272 1.542-2.814.411-.23.432-.833-.034-.833Z" fill="#CF142B"/><path d="M98.352 37.444c3.215.628 6.064-1.644 7.078-5.436.71-2.67-.021-4.98-1.384-5.94.79-.71 1.836-1.55 2.871-1.854 1.217-.35 1.728.312 1.37 1.78-.515 2.127-1.736 7.137-1.877 7.696-.445 1.781.149 3.686 2.164 3.797a5.229 5.229 0 0 0 3.622-1.23c.038-.141.536-2.302.602-2.533-.648.722-1.673 1.247-2.06.889-.345-.32-.228-.795.029-1.88.133-.559 1.982-7.951 2.314-9.36.411-1.756.008-3.08-1.599-3.08-2.418 0-5.62 1.67-8.881 5.556.951 1.226 1.321 3.28.606 6.013-.793 3.015-2.072 4.126-2.828 3.925-.4-.107-.785-.474-.432-1.973.282-1.204 2.737-11.184 2.999-12.248.187-.752-.071-1.217-.644-1.217-.436 0-3.76-.013-3.996-.009-.494.01-.49.556-.216.722.54.33.64.876.382 2.11-.2.956-2.023 8.19-2.26 9.147-.623 2.554.042 4.72 2.14 5.125ZM63.896 8.554c1.1.192 1.167 2.058.108 4.223-1.126 2.302-3.423 4.442-6.493 5.014 1.799-4.86 4.117-9.634 6.385-9.237Zm-6.912 10.753c3.265-.58 7.788-3.053 9.221-7.82.835-2.775.067-5.051-2.505-5.243-4.702-.35-9.628 6.26-12.187 16.992-.934 3.937-1.35 6.414-1.366 8.942-.017 3.173 1.22 4.72 3.194 5.266 3.381.94 7.88-1.465 9.6-8.02 1.844-7.025-.636-9.762-3.482-9.348-.261.192-2.205 1.652-2.205 1.652l-.428 1.892c.644-.431 1.425-.576 1.969-.32 1.138.534 1.15 2.84.286 6.32-.934 3.763-2.849 6.043-4.083 5.612-1.13-.397-1.25-2.34-.079-7.866.499-2.37 1.454-6.116 2.065-8.059Zm34.666.913c-1.399.01-3.065.736-4.265 2.623.158-.666.266-1.11.303-1.251.187-.752-.075-1.217-.648-1.217-.432 0-3.755-.013-3.992-.009-.498.009-.49.555-.216.722.54.329.64.871.383 2.11-.204.952-4.254 17.33-4.474 18.29-.498 2.14-1.13 4.933-3.298 5.82-.495.202-.357.492-.104.5 3.689.077 7.302.077 8.37.039.282-.013.328-.282.07-.419-1.682-.884-1.549-3.108-1.034-5.27.166-.696 1.716-7.157 3.04-12.662.013-.034.038-.11.067-.243.897-3.74 2.812-6.098 4.112-5.748 1.52.41.952 3.527.325 5.846-.578 2.144-1.658 4.728-2.725 4.472-.461-.116-.719-.85-.266-1.862-.162.064-1.587.53-1.674.546-1.051 3.272.415 4.924 2.214 4.916 2.75-.017 5.354-3.152 6.758-8.157 1.304-4.655.602-9.07-2.945-9.045Z" fill="#CF142B"/><path d="M6.727 45.895c.78 0 1.022-.209 1.022-.935 0-.726-.241-.935-1.022-.935-.461 0-.752.017-.752.017v1.853h.752Zm-1.055 1.862c-.08 0-.112-.042-.112-.128v-3.933c.34 0 .685-.017 1.1-.017 1.126 0 1.52.307 1.52 1.243 0 .99-.377 1.324-1.52 1.324h-.685v1.511h-.303Zm4.793-2.217c0-.059 0-.072-.063-.123a.972.972 0 0 0-.618-.222c-.47 0-.856.29-.856 1.132 0 .734.282 1.127.835 1.127a.953.953 0 0 0 .64-.218c.05-.047.062-.055.062-.12v-1.575Zm.249 2.217c-.116 0-.15-.017-.179-.068-.045-.06-.054-.107-.104-.107-.045 0-.066.017-.12.051a1.339 1.339 0 0 1-.681.188c-.623 0-1.13-.448-1.13-1.486s.552-1.507 1.13-1.507c.253 0 .515.085.681.188.054.034.075.05.12.05.05 0 .059-.042.104-.106.03-.047.063-.064.179-.064h.15v2.861h-.15Zm1.017 0c-.079 0-.112-.042-.112-.128v-2.733h.15c.116 0 .145.017.178.068.046.06.054.103.104.103.042 0 .067-.017.12-.047.167-.107.424-.192.678-.192.045 0 .104.008.104.008v.393s-.13-.017-.237-.017a1.02 1.02 0 0 0-.636.222c-.062.051-.062.056-.062.12v2.203h-.287Zm3.104.022c-.125.03-.311.047-.478.047-.54 0-.756-.265-.756-.893v-1.712h-.407v-.325h.407v-.623l.403-.12v.743h.744v.325h-.744v1.742c0 .371.083.542.461.542.158 0 .35-.021.35-.021l.02.295Zm3.148-2.619c-.573 0-.855.398-.855 1.162 0 .77.282 1.162.855 1.162.574 0 .852-.393.852-1.162 0-.764-.278-1.161-.852-1.161Zm0 2.661c-.83 0-1.279-.52-1.279-1.499 0-.969.449-1.499 1.28-1.499.83 0 1.279.521 1.279 1.5 0 .977-.449 1.498-1.28 1.498Zm2.16-.064c-.079 0-.112-.042-.112-.128v-2.408h-.407v-.325h.407v-.346c0-.628.216-.888.756-.888.166 0 .349.017.474.047l-.021.294s-.187-.02-.345-.02c-.378 0-.465.17-.465.542v.371h.735v.325h-.735v2.536h-.287Zm4.441.022a2.23 2.23 0 0 1-.474.047c-.54 0-.756-.265-.756-.893v-1.712h-.407v-.325h.407v-.623l.4-.12v.743h.743v.325h-.744v1.742c0 .371.087.542.465.542.154 0 .345-.021.345-.021l.02.295Zm2.442-.022c-.083 0-.112-.042-.112-.128v-1.734c0-.504-.162-.7-.694-.7-.382 0-.619.162-.69.222-.062.051-.062.055-.062.12v2.22h-.287c-.078 0-.112-.042-.112-.128v-3.912h.287c.083 0 .112.043.112.129v1.089c0 .085.017.115.054.115.025 0 .05-.009.087-.03.179-.098.412-.192.694-.192.669 0 1.01.307 1.01.956v1.973h-.287Zm1.948-1.422c.39 0 .606-.077.714-.226.058-.09.088-.2.088-.329 0-.346-.2-.628-.682-.628-.614 0-.76.628-.76 1.093.129.052.34.09.64.09Zm1.096 1.35s-.444.14-.814.14c-.918 0-1.35-.538-1.35-1.503 0-.943.42-1.494 1.192-1.494.678 0 1.11.393 1.11.94 0 .273-.088.473-.237.61-.212.196-.553.269-.96.269-.386 0-.669-.077-.669-.077.063.713.428.91 1.035.91.22 0 .64-.09.64-.09l.053.295Zm4.853-.022a4.57 4.57 0 0 1-1.08.158c-1.08 0-1.608-.563-1.608-2.096 0-1.478.67-2.089 1.583-2.089a3.45 3.45 0 0 1 1.105.205l-.125.372c-.016.038-.037.06-.07.06a.153.153 0 0 1-.092-.039c-.178-.124-.457-.218-.806-.218-.66 0-1.158.402-1.158 1.709 0 1.323.34 1.708 1.262 1.708.303 0 .686-.06.93-.099l.059.33Zm2.313-2.123c0-.059 0-.072-.058-.123a.987.987 0 0 0-.623-.222c-.47 0-.856.29-.856 1.132 0 .734.282 1.127.835 1.127a.968.968 0 0 0 .644-.218c.046-.047.058-.055.058-.12v-1.575Zm.25 2.217c-.117 0-.15-.017-.18-.068-.045-.06-.053-.107-.103-.107-.042 0-.067.017-.12.051a1.335 1.335 0 0 1-.678.188c-.627 0-1.13-.448-1.13-1.486s.549-1.507 1.13-1.507c.25 0 .511.085.677.188.054.034.08.05.12.05.05 0 .059-.042.105-.106.029-.047.062-.064.178-.064h.15v2.861h-.15Zm1.021 0c-.083 0-.116-.042-.116-.128v-2.733h.153c.113 0 .146.017.179.068.041.06.054.103.1.103.045 0 .066-.017.12-.047.166-.107.428-.192.677-.192.046 0 .104.008.104.008v.393s-.129-.017-.237-.017a1.02 1.02 0 0 0-.635.222c-.063.051-.063.056-.063.12v2.203h-.282Zm2.704 0a2.205 2.205 0 0 1-.399.039c-.44 0-.569-.29-.569-.837v-3.242h.287c.083 0 .112.043.112.129v3.143c0 .341.062.482.324.482.037 0 .079 0 .216-.017l.029.303Zm.337-.371s.349.094.747.094c.424 0 .657-.133.657-.491 0-.26-.1-.427-.603-.504-.56-.09-.88-.244-.88-.773 0-.406.19-.889 1.08-.889.349 0 .569.073.714.124l-.1.26c-.033.082-.05.116-.09.116-.034 0-.05-.043-.2-.102a.718.718 0 0 0-.312-.056c-.49 0-.664.197-.664.5 0 .363.236.414.66.5.573.11.818.341.818.79 0 .563-.332.866-1.084.866-.357 0-.797-.132-.797-.132l.054-.303Zm2.824-.274c0 .06 0 .073.059.124.07.06.29.218.623.218.469 0 .851-.286.851-1.132 0-.73-.282-1.127-.83-1.127a.953.953 0 0 0-.644.222c-.046.047-.059.055-.059.12v1.575Zm-.398.645v-4.04h.282c.083 0 .116.039.116.129v1.089c0 .085.017.115.054.115a.184.184 0 0 0 .084-.03c.178-.094.41-.192.693-.192.627 0 1.13.452 1.13 1.49s-.552 1.503-1.13 1.503a1.34 1.34 0 0 1-.681-.188c-.054-.034-.075-.05-.116-.05-.05 0-.063.046-.104.106-.033.051-.067.068-.179.068h-.15Zm3.913-1.422c.39 0 .606-.077.714-.226.059-.09.088-.2.088-.329 0-.346-.2-.628-.682-.628-.619 0-.76.628-.76 1.093.129.052.34.09.64.09Zm1.1 1.35s-.448.14-.818.14c-.918 0-1.35-.538-1.35-1.503 0-.943.424-1.494 1.192-1.494.678 0 1.11.393 1.11.94 0 .273-.088.473-.237.61-.212.196-.553.269-.96.269-.386 0-.669-.077-.669-.077.063.713.428.91 1.035.91.22 0 .644-.09.644-.09l.054.295Zm.839.072c-.079 0-.112-.042-.112-.128v-2.733h.15c.116 0 .149.017.178.068.046.06.054.103.104.103.041 0 .066-.017.12-.047.166-.107.428-.192.677-.192.046 0 .104.008.104.008v.393s-.128-.017-.236-.017c-.329 0-.565.162-.636.222-.062.051-.062.056-.062.12v2.203h-.287Zm3.344-2.217c0-.059 0-.072-.059-.123a.975.975 0 0 0-.623-.222c-.469 0-.851.29-.851 1.132 0 .734.282 1.127.83 1.127.37 0 .574-.158.644-.218.05-.047.059-.055.059-.12v-1.575Zm0 2.175c0-.082-.013-.116-.05-.116a.201.201 0 0 0-.092.034 1.443 1.443 0 0 1-.69.188c-.626 0-1.129-.448-1.129-1.486s.552-1.507 1.13-1.507c.253 0 .515.085.681.188.054.034.075.05.12.05.046 0 .059-.042.1-.106.033-.047.067-.064.179-.064h.15v2.985c0 .846-.424 1.119-1.01 1.119-.619 0-.955-.504-.955-.504l.232-.222s.287.384.698.384c.366 0 .636-.175.636-.679v-.264Zm5.35.042c-.104 0-.141-.021-.183-.072-.033-.039-.062-.103-.133-.103-.045 0-.074.026-.128.051a2.018 2.018 0 0 1-.827.188c-.976 0-1.491-.563-1.491-2.105 0-1.482.669-2.08 1.72-2.08.585 0 1.08.205 1.08.205l-.125.376c-.017.043-.033.064-.067.064-.024 0-.062-.017-.112-.051-.19-.141-.436-.214-.756-.214-.801 0-1.28.393-1.28 1.7 0 1.273.304 1.708 1.293 1.708.403 0 .685-.166.685-.166.112-.077.116-.111.116-.27v-1.225h.291c.083 0 .116.038.116.128v1.866h-.199Zm1.092 0c-.083 0-.116-.042-.116-.128v-2.733h.154c.112 0 .145.017.178.068.042.06.054.103.1.103.046 0 .067-.017.12-.047a1.34 1.34 0 0 1 .682-.192c.041 0 .104.008.104.008v.393s-.133-.017-.241-.017c-.329 0-.565.162-.636.222-.062.051-.062.056-.062.12v2.203h-.283Zm2.668-2.597c-.574 0-.852.398-.852 1.162 0 .77.278 1.162.851 1.162.574 0 .852-.393.852-1.162 0-.764-.278-1.161-.852-1.161Zm0 2.661c-.831 0-1.28-.52-1.28-1.499 0-.969.449-1.499 1.28-1.499.83 0 1.279.521 1.279 1.5 0 .977-.449 1.498-1.28 1.498Zm3.937-.064c-.112 0-.145-.017-.178-.068-.042-.06-.054-.107-.104-.107-.042 0-.063.017-.117.051-.17.107-.419.188-.664.188-.66 0-.993-.303-.993-.952v-1.973h.283c.083 0 .116.038.116.128v1.734c0 .504.154.696.673.696.374 0 .606-.158.677-.218.058-.051.058-.064.058-.124v-2.216h.287c.083 0 .116.038.116.128v2.733h-.154Zm1.255-.645c0 .06 0 .073.058.124a.98.98 0 0 0 .623.218c.466 0 .852-.286.852-1.132 0-.73-.278-1.127-.83-1.127a.964.964 0 0 0-.645.222c-.05.047-.058.055-.058.12v1.575Zm-.286 1.632c-.083 0-.117-.039-.117-.128v-3.72h.154c.112 0 .145.017.179.068.041.06.054.103.103.103.042 0 .063-.017.117-.047a1.35 1.35 0 0 1 .681-.192c.627 0 1.13.452 1.13 1.49s-.553 1.503-1.13 1.503c-.282 0-.51-.094-.69-.188a.208.208 0 0 0-.087-.034c-.037 0-.054.034-.054.12v1.025h-.286Z" fill="#898989"/><path d="M156.874 0c-6.068 7.034-12.947 12.094-20.91 13.892.295 1.47.258 3.267-.743 3.468-1.093.222-.021 2.203 2.135 3.416-3.651-1.4-2.991-4.091-7.406-5.06-.324-.073-.873.123-.881.546-.511-1.29-.316-1.764 1.051-1.785.129-.384.897-.457 1.67-.423v-.004c.336.026.523-.047.673-.145.178-.12.095-.423.095-.423-.116.167-.465.175-.818.132-3.273-.666-8.769-4.637-12.956-9.19.569 1.721 1.375 3.289 2.646 4.557.038.034.008.09-.037.077-.785-.21-.868-.21-1.691-.795.831 1.538 1.628 2.35 2.924 2.994.1.047.075.21-.041.214-.515.012-1.205-.167-1.703-.32 3.227 7.503 9.267 4.949 12.976 7.81.254.197.258.286.154.564-.345.914-.532 1.853-.926 3.25 2.932-.833 5.707-1.102 9.524-.107 1.658.431-2.762-2.537-3.601-3.053-.266-.163-.91-.594-.557-.782 4.582-2.409 11.693.115 16.653-9.066-1.84.832-3.02.405-4.212.739 3.215-.897 5.142-2.704 5.944-4.984-1.387 1.072-3.273 1.123-4.482 1.922 2.891-1.914 3.896-4.489 4.519-7.444Z" fill="#C59E5C"/><path fill-rule="evenodd" clip-rule="evenodd" d="M131.54 14.563a3.038 3.038 0 0 0-.282 0c-.428.034-.175.426-.175.426a.928.928 0 0 0 .162.06.129.129 0 0 1 .021-.12c.046-.063.141-.072.212-.016a.159.159 0 0 1 .046.196c.681.047 1.03-.658 1.03-.658-.312.116-.719.116-1.014.111Z" fill="url(#a)"/><defs><linearGradient id="a" x1="124.686" y1="8.93" x2="154.274" y2="31.332" gradientUnits="userSpaceOnUse"><stop stop-color="#EBB45F"/><stop offset=".004" stop-color="#D8AA5F"/><stop offset=".012" stop-color="#C59F5F"/><stop offset="1" stop-color="#C59F5F"/></linearGradient></defs></svg>