<svg width="106" height="33" fill="none" xmlns="http://www.w3.org/2000/svg"><path d="M13.228 13.682c.203-.416 3.734-6.122 4.06-6.638.156-.246.29-.257.218.042-.05.212-1.087 3.842-1.957 7.336-.48-.19-1.806-.617-2.321-.74Zm-9.1 6.674c-.481-.419-.423-1.757.91-3.097 1.387-1.393 2.513-2.027 4.545-2.111a86.26 86.26 0 0 1-2.386 3.365c-1.29 1.754-2.405 2.418-3.068 1.843Zm24.051-6.755c-.203 0-5.515.01-5.891 0-.377-.011-.401.385-.126.553.58.357.697.849.463 1.798-.348 1.413-.694 2.51-1.591 4.08-1.017 1.773-2.461 2.667-3.174 2.385-.572-.226-.508-1.084 0-3.091l.406-1.617a11.05 11.05 0 0 1 1.904 1.921c.005-.022.395-1.528.423-1.586a12.673 12.673 0 0 0-1.945-1.838c.742-2.938 1.75-6.937 1.906-7.618.282-1.215.63-2.424 1.642-2.99.404-.224.36-.657-.075-.657-.377 0-3.746.014-4.125.014-1.142 0-1.998 1.46-2.723 2.477-.755 1.056-3.653 5.121-4.174 5.848-2.684-.227-5.535.287-8.051 2.641C.052 18.728.228 21.967.866 23.084c1.142 1.992 3.65 1.559 5.406.115 1.993-1.637 3.567-3.617 6.14-8.062.635.106 2.145.567 2.761.801-.54 2.178-1 4.03-1.12 4.533-.103.44-.193.86-.273 1.276-.287 1.477.735 3.189 2.784 3.189 2.215 0 4.088-1.74 5.395-3.901 1.026-1.693 1.616-3.287 2.24-5.823.104-.003.405 0 .405 0s-1.659 6.599-1.823 7.244c-.279 1.109.137 2.26 1.488 2.332.92.05 1.8-.282 2.43-.802.025-.092.36-1.5.402-1.65-.435.47-1.12.81-1.38.578-.231-.21-.153-.517.02-1.226.111-.46 1.22-4.954 1.424-5.739.25-.974.423-1.424 1.034-1.837.24-.162.259-.511-.02-.511Zm3.695-.171c-1.12-.014-2.441.67-2.856 1.05-.023.079-.332 1.29-.407 1.53.376-.365.975-.622 1.257-.418.231.167.231.533.056 1.206-.104.397-1.24 4.988-1.386 5.641-.29 1.302.21 2.307 1.561 2.382.922.048 1.697-.262 2.327-.782.03-.111.376-1.522.413-1.655-.432.471-1.126.8-1.386.57-.23-.21-.17-.551.012-1.26.108-.43 1.44-5.66 1.588-6.312.218-.96.022-1.935-1.179-1.952Zm15.255 9.177c-.588-.21-.8-1.117-.26-3.25.826-3.251 2.038-4.285 2.896-4.27.586.01.912.533.756 1.415-.223.886-.494 1.947-.739 2.919a.613.613 0 0 0-.025.083c-.348 1.34-1.385 3.544-2.628 3.103Zm3.364 2.209a3.563 3.563 0 0 0 2.43-.804c.025-.093.36-1.503.404-1.657-.435.473-1.123.816-1.38.581-.234-.21-.156-.519.017-1.228.114-.464 1.199-4.915 1.402-5.703.25-.974.393-1.485 1.034-1.84.273-.151.29-.545-.023-.545h-2.382c-.55 0-.797.151-.978.886-.418-.67-1.087-.95-1.84-.95-2.293 0-4.158 2.089-5.058 5.473-.763 2.866-.51 4.969 1.084 5.633 1.263.525 2.829-.212 3.765-1.541.04.871.505 1.639 1.525 1.695ZM31.897 9.685c-.89.347-1.433 1.162-1.215 1.826.22.662 1.117.919 2.006.573.89-.346 1.433-1.162 1.212-1.826-.217-.662-1.114-.919-2.003-.573ZM87.45 13.62h-2.383c-.55 0-.797.151-.976.886-.42-.67-1.087-.95-1.842-.95-2.293 0-4.163 2.086-5.058 5.473-.691 2.623-.532 4.714.805 5.49.357.163.566-.12.51-.06-.437.443-1.1 1.01-1.817 1.641-1.404 1.237-3.18 2.91-4.804 2.718-.959-.115-1.75-.875-1.251-2.296-1.335.073-1.923 1.558-1.901 2.634.039 1.717 1.19 2.826 3.13 2.84 2.778.016 6.108-4.318 6.97-5.292.523-.587 1.279-1.408 1.82-2.07.158-.22.225-.29.412-.508.025-.092.329-1.374.384-1.586-.37.377-.925.475-1.276.346-.585-.218-.772-1.396-.231-3.53.825-3.25 2.037-4.29 2.895-4.27.613.017.962.61.7 1.623-.006.028-.012.05-.014.073a824.084 824.084 0 0 1-1.41 5.551c-.326 1.229.1 2.41 1.451 2.483a3.563 3.563 0 0 0 2.43-.804c.028-.134.36-1.503.405-1.657-.435.473-1.124.816-1.38.581-.231-.21-.156-.52.017-1.228.114-.464 1.201-4.915 1.402-5.703.25-.974.393-1.485 1.034-1.84.275-.151.29-.545-.023-.545Z" fill="#fff"/><path d="M66.38 24.788c2.157.41 4.07-1.075 4.75-3.555.476-1.745-.015-3.256-.929-3.885.53-.463 1.232-1.013 1.926-1.212.816-.229 1.16.204.92 1.165-.346 1.39-1.165 4.666-1.26 5.032-.298 1.165.1 2.41 1.452 2.483a3.563 3.563 0 0 0 2.43-.804c.025-.093.36-1.506.404-1.657-.435.472-1.123.816-1.382.581-.232-.21-.154-.52.02-1.228.088-.366 1.329-5.2 1.552-6.122.275-1.148.005-2.013-1.073-2.013-1.622 0-3.771 1.092-5.959 3.633.639.801.887 2.145.407 3.932-.532 1.971-1.39 2.698-1.898 2.566-.267-.07-.526-.31-.29-1.29.19-.787 1.837-7.314 2.013-8.01.125-.49-.048-.795-.432-.795-.293 0-2.522-.008-2.681-.005-.332.005-.329.363-.145.471.362.216.43.573.256 1.38-.133.626-1.357 5.356-1.516 5.982-.418 1.67.028 3.085 1.436 3.35ZM43.264 5.896c.739.126.784 1.346.073 2.762-.755 1.505-2.296 2.904-4.356 3.278 1.207-3.178 2.762-6.3 4.283-6.04Zm-4.637 7.032c2.19-.38 5.225-1.997 6.187-5.114.56-1.815.045-3.303-1.68-3.429-3.155-.229-6.46 4.094-8.177 11.112-.627 2.575-.906 4.194-.917 5.848-.011 2.075.82 3.085 2.143 3.443 2.269.614 5.287-.958 6.44-5.245 1.238-4.593-.426-6.383-2.335-6.113-.175.126-1.48 1.081-1.48 1.081l-.287 1.237c.432-.282.956-.377 1.321-.21.764.35.772 1.858.193 4.134-.627 2.46-1.912 3.951-2.74 3.67-.758-.26-.839-1.531-.053-5.145.335-1.55.976-3.999 1.385-5.27Zm23.259.597c-.939.006-2.056.48-2.862 1.715.106-.436.178-.726.204-.818.125-.492-.05-.796-.435-.796-.29 0-2.52-.008-2.678-.006-.335.006-.33.363-.145.472.362.215.429.57.256 1.38-.136.623-2.853 11.332-3.001 11.96-.335 1.4-.758 3.226-2.213 3.807-.331.131-.24.32-.07.326 2.475.05 4.9.05 5.616.026.19-.009.22-.185.047-.274-1.128-.578-1.04-2.033-.694-3.446.112-.455 1.151-4.68 2.04-8.28.009-.023.025-.073.045-.16.602-2.446 1.886-3.987 2.759-3.758 1.02.268.638 2.307.217 3.823-.387 1.402-1.112 3.091-1.828 2.924-.31-.076-.482-.556-.178-1.218-.109.042-1.065.346-1.123.358-.706 2.139.278 3.22 1.485 3.214 1.845-.011 3.592-2.061 4.534-5.334.875-3.044.404-5.931-1.976-5.915ZM4.91 30.314c.523 0 .685-.137.685-.611 0-.475-.162-.612-.686-.612-.31 0-.504.011-.504.011v1.212h.504Zm-.71 1.217c-.053 0-.075-.028-.075-.083v-2.572c.228 0 .46-.01.738-.01.756 0 1.02.2 1.02.811 0 .648-.253.866-1.02.866h-.46v.988H4.2Zm3.218-1.448c0-.04 0-.048-.042-.081a.662.662 0 0 0-.415-.146c-.315 0-.574.19-.574.74 0 .48.19.737.56.737a.65.65 0 0 0 .429-.142c.033-.03.042-.036.042-.078v-1.03Zm.167 1.449c-.078 0-.1-.012-.12-.045-.03-.04-.036-.07-.07-.07-.03 0-.044.011-.08.034a.916.916 0 0 1-.457.122c-.418 0-.758-.293-.758-.971 0-.679.37-.986.758-.986.17 0 .345.056.457.123.036.023.05.034.08.034.034 0 .04-.028.07-.07.02-.03.042-.042.12-.042h.1v1.87h-.1Zm.682 0c-.053 0-.076-.028-.076-.084V29.66h.1c.079 0 .098.011.12.045.031.039.037.067.07.067.028 0 .045-.011.081-.031a.906.906 0 0 1 .454-.126c.031 0 .07.006.07.006v.257s-.086-.011-.159-.011a.695.695 0 0 0-.426.145c-.042.033-.042.036-.042.078v1.44h-.192Zm2.082.013c-.084.02-.21.031-.32.031-.363 0-.508-.173-.508-.583v-1.12h-.273v-.212h.273v-.408l.27-.078v.486h.5v.212h-.5v1.14c0 .242.056.354.31.354.106 0 .234-.014.234-.014l.014.192Zm2.113-1.711c-.385 0-.574.26-.574.76 0 .502.19.759.574.759.384 0 .571-.257.571-.76 0-.5-.187-.759-.571-.759Zm0 1.74c-.557 0-.858-.341-.858-.98 0-.634.3-.98.858-.98.557 0 .858.34.858.98 0 .639-.3.98-.858.98Zm1.448-.043c-.052 0-.074-.028-.074-.083v-1.575h-.274v-.212h.274v-.226c0-.41.144-.581.507-.581.111 0 .234.011.318.03l-.014.193s-.126-.014-.232-.014c-.253 0-.312.112-.312.355v.243h.493v.212h-.493v1.658h-.192Zm2.979.014c-.084.02-.206.031-.318.031-.362 0-.507-.173-.507-.583v-1.12h-.273v-.212h.273v-.408l.268-.078v.486h.498v.212h-.498v1.14c0 .242.058.354.312.354.103 0 .231-.014.231-.014l.014.192Zm1.639-.014c-.055 0-.075-.027-.075-.083v-1.134c0-.33-.108-.458-.465-.458a.74.74 0 0 0-.463.145c-.042.034-.042.037-.042.079v1.451h-.192c-.053 0-.075-.027-.075-.083V28.89h.192c.056 0 .075.028.075.084v.712c0 .056.011.075.037.075a.12.12 0 0 0 .058-.02.976.976 0 0 1 .466-.125c.448 0 .677.201.677.625v1.29h-.193Zm1.307-.929c.262 0 .407-.05.48-.148a.382.382 0 0 0 .058-.215c0-.226-.134-.41-.457-.41-.412 0-.51.41-.51.714.087.034.229.059.43.059Zm.736.882s-.298.092-.546.092c-.616 0-.906-.352-.906-.983 0-.616.282-.977.8-.977.454 0 .744.257.744.614 0 .18-.058.31-.159.4-.142.128-.37.176-.644.176-.259 0-.448-.05-.448-.05.042.466.287.594.694.594.147 0 .429-.059.429-.059l.036.193Zm3.255-.014a3.138 3.138 0 0 1-.724.103c-.725 0-1.079-.368-1.079-1.37 0-.967.45-1.366 1.062-1.366.388 0 .741.134.741.134l-.083.243c-.011.025-.025.04-.047.04a.104.104 0 0 1-.062-.026.977.977 0 0 0-.54-.142c-.444 0-.778.262-.778 1.116 0 .866.229 1.117.847 1.117.204 0 .46-.039.625-.064l.038.215Zm1.552-1.387c0-.04 0-.048-.04-.081a.672.672 0 0 0-.417-.146c-.315 0-.574.19-.574.74 0 .48.19.737.56.737a.66.66 0 0 0 .432-.142c.03-.03.039-.036.039-.078v-1.03Zm.167 1.449c-.078 0-.1-.012-.12-.045-.03-.04-.036-.07-.07-.07-.027 0-.044.011-.08.034a.914.914 0 0 1-.454.122c-.421 0-.759-.293-.759-.971 0-.679.368-.986.758-.986.168 0 .343.056.455.123.036.023.053.034.08.034.034 0 .04-.028.07-.07.02-.03.042-.042.12-.042h.1v1.87h-.1Zm.685 0c-.055 0-.078-.028-.078-.084V29.66h.104c.075 0 .097.011.12.045.027.039.035.067.066.067.03 0 .045-.011.081-.031a.914.914 0 0 1 .454-.126c.03 0 .07.006.07.006v.257s-.087-.011-.159-.011a.695.695 0 0 0-.426.145c-.042.033-.042.036-.042.078v1.44h-.19Zm1.815-.001a1.52 1.52 0 0 1-.268.026c-.295 0-.382-.19-.382-.548V28.89h.193c.055 0 .075.028.075.084v2.055c0 .223.042.315.217.315.026 0 .053 0 .145-.01l.02.197Zm.227-.242s.234.061.501.061c.285 0 .44-.087.44-.321 0-.17-.066-.28-.404-.33-.376-.058-.59-.159-.59-.505 0-.265.128-.58.724-.58.234 0 .382.047.48.08l-.067.17c-.023.054-.034.076-.062.076-.022 0-.033-.028-.133-.067a.492.492 0 0 0-.21-.036c-.328 0-.445.128-.445.326 0 .238.159.271.443.327.384.073.549.224.549.517 0 .368-.223.566-.728.566-.24 0-.535-.086-.535-.086l.037-.198Zm1.894-.179c0 .039 0 .047.039.08a.66.66 0 0 0 .418.143c.315 0 .571-.187.571-.74 0-.477-.19-.737-.557-.737a.65.65 0 0 0-.432.145c-.03.031-.039.037-.039.079v1.03Zm-.268.421v-2.64h.19c.056 0 .078.024.078.083v.712c0 .056.011.075.036.075a.12.12 0 0 0 .056-.02c.12-.06.276-.125.465-.125.421 0 .758.296.758.974 0 .679-.37.983-.758.983a.916.916 0 0 1-.457-.123c-.036-.022-.05-.033-.078-.033-.033 0-.041.03-.07.07-.022.033-.044.044-.12.044h-.1Zm2.626-.929c.262 0 .407-.05.48-.148a.382.382 0 0 0 .058-.215c0-.226-.134-.41-.457-.41-.416 0-.51.41-.51.714.086.034.228.059.429.059Zm.738.882s-.3.092-.549.092c-.616 0-.905-.352-.905-.983 0-.616.284-.977.8-.977.454 0 .744.257.744.614 0 .18-.059.31-.16.4-.142.128-.37.176-.643.176-.26 0-.449-.05-.449-.05.042.466.287.594.694.594.148 0 .432-.059.432-.059l.036.193Zm.563.048c-.053 0-.075-.028-.075-.084V29.66h.1c.078 0 .1.011.12.045.03.039.036.067.07.067.028 0 .044-.011.08-.031a.915.915 0 0 1 .455-.126c.03 0 .07.006.07.006v.257s-.087-.011-.16-.011a.703.703 0 0 0-.426.145c-.041.033-.041.036-.041.078v1.44h-.193Zm2.243-1.449c0-.04 0-.048-.039-.081a.664.664 0 0 0-.418-.146c-.315 0-.571.19-.571.74 0 .48.19.737.557.737a.653.653 0 0 0 .432-.142c.034-.03.04-.036.04-.078v-1.03Zm0 1.42c0-.052-.008-.075-.033-.075a.136.136 0 0 0-.061.023.988.988 0 0 1-.463.122c-.42 0-.758-.293-.758-.971 0-.679.37-.986.758-.986.17 0 .345.056.457.123.036.023.05.034.08.034.032 0 .04-.028.068-.07.022-.03.044-.042.12-.042h.1v1.951c0 .553-.284.732-.677.732-.416 0-.641-.33-.641-.33l.156-.145s.192.252.468.252c.245 0 .426-.115.426-.444v-.173Zm3.59.028c-.07 0-.095-.014-.123-.047-.022-.025-.041-.067-.089-.067-.03 0-.05.017-.086.033a1.38 1.38 0 0 1-.555.123c-.655 0-1-.368-1-1.376 0-.969.448-1.36 1.153-1.36.393 0 .725.134.725.134l-.084.246c-.01.028-.022.042-.044.042-.017 0-.042-.011-.075-.034-.129-.092-.293-.14-.508-.14-.538 0-.858.258-.858 1.112 0 .832.204 1.117.867 1.117.27 0 .46-.11.46-.11.075-.05.078-.072.078-.175v-.802h.195c.055 0 .078.026.078.084v1.22h-.134Zm.732.001c-.055 0-.078-.028-.078-.084V29.66h.104c.075 0 .097.011.12.045.027.039.036.067.066.067.031 0 .045-.011.081-.031a.917.917 0 0 1 .457-.126c.028 0 .07.006.07.006v.257s-.09-.011-.162-.011a.703.703 0 0 0-.426.145c-.042.033-.042.036-.042.078v1.44h-.19Zm1.79-1.698c-.384 0-.57.26-.57.76 0 .502.186.759.57.759.385 0 .572-.257.572-.76 0-.5-.187-.759-.571-.759Zm0 1.74c-.557 0-.858-.341-.858-.98 0-.634.301-.98.859-.98.557 0 .858.34.858.98 0 .639-.301.98-.858.98Zm2.642-.042c-.075 0-.098-.012-.12-.045-.028-.04-.036-.07-.07-.07-.027 0-.041.011-.078.034a.898.898 0 0 1-.446.122c-.443 0-.666-.198-.666-.622v-1.29h.19c.056 0 .078.025.078.084v1.133c0 .33.103.455.451.455a.733.733 0 0 0 .455-.142c.039-.034.039-.042.039-.081v-1.449h.192c.056 0 .078.025.078.084v1.787h-.103Zm.841-.422c0 .04 0 .047.039.081a.668.668 0 0 0 .418.142c.312 0 .571-.187.571-.74 0-.477-.187-.737-.557-.737a.656.656 0 0 0-.432.146c-.033.03-.04.036-.04.078v1.03Zm-.192 1.066c-.056 0-.078-.025-.078-.083V29.66h.103c.075 0 .097.011.12.045.027.039.036.067.07.067.027 0 .041-.011.077-.031a.925.925 0 0 1 .457-.126c.421 0 .758.296.758.975 0 .678-.37.982-.758.982a.998.998 0 0 1-.462-.122.14.14 0 0 0-.059-.023c-.025 0-.036.023-.036.078v.67h-.192ZM105.644.302c-4.072 4.6-8.687 7.909-14.029 9.085.198.96.173 2.136-.499 2.267-.733.146-.014 1.441 1.433 2.234-2.45-.916-2.007-2.675-4.97-3.309-.217-.047-.584.081-.59.358-.343-.844-.212-1.154.705-1.168.087-.251.602-.299 1.12-.276V9.49c.226.017.352-.03.452-.095.12-.078.064-.276.064-.276-.078.109-.312.114-.55.086-2.195-.435-5.882-3.033-8.691-6.01.382 1.126.922 2.15 1.775 2.98.025.023.006.059-.025.05-.527-.136-.582-.136-1.134-.519.557 1.005 1.092 1.536 1.962 1.958.067.03.05.136-.028.14-.346.008-.808-.11-1.143-.21 2.166 4.906 6.218 3.237 8.706 5.107.17.129.173.188.103.37-.231.597-.356 1.211-.621 2.124 1.967-.544 3.829-.72 6.39-.07 1.112.283-1.853-1.658-2.416-1.996-.178-.106-.61-.388-.374-.511 3.074-1.575 7.845.075 11.173-5.929-1.235.545-2.026.265-2.826.483 2.157-.586 3.45-1.768 3.988-3.259-.931.701-2.196.735-3.007 1.257 1.939-1.251 2.614-2.935 3.032-4.868Z" fill="#fff"/><path fill-rule="evenodd" clip-rule="evenodd" d="M88.647 9.825a2.115 2.115 0 0 0-.189 0c-.287.022-.117.28-.117.28.039.016.073.03.109.038a.081.081 0 0 1 .014-.078c.03-.042.094-.047.142-.01a.1.1 0 0 1 .03.127c.457.031.692-.43.692-.43-.21.076-.483.076-.68.073Z" fill="#fff"/></svg>